<?xml version="1.0" encoding="UTF-8"?>
<!DOCTYPE svg PUBLIC "-//W3C//DTD SVG 1.1//EN" "http://www.w3.org/Graphics/SVG/1.1/DTD/svg11.dtd">
<svg xmlns="http://www.w3.org/2000/svg" version="1.1" width="832px" height="720px" style="shape-rendering:geometricPrecision; text-rendering:geometricPrecision; image-rendering:optimizeQuality; fill-rule:evenodd; clip-rule:evenodd" xmlns:xlink="http://www.w3.org/1999/xlink">
<g><path style="opacity:0.74" fill="#c4c4c4" d="M 361.5,-0.5 C 390.833,-0.5 420.167,-0.5 449.5,-0.5C 572.089,16.676 665.256,78.0094 729,183.5C 775.528,270.111 785.528,360.778 759,455.5C 725.848,556.317 661.681,630.15 566.5,677C 469.333,720.196 370.667,723.863 270.5,688C 177.485,650.986 109.651,587.153 67,496.5C 22.134,386.764 28.4673,280.098 86,176.5C 150.239,75.0983 242.072,16.0983 361.5,-0.5 Z"/></g>
<g><path style="opacity:1" fill="#e4e4e4" d="M 374.5,2.5 C 394.996,1.33738 415.663,1.17072 436.5,2C 438.708,2.19088 440.708,2.69088 442.5,3.5C 419.848,2.60195 397.181,2.26862 374.5,2.5 Z"/></g>
<g><path style="opacity:1" fill="#fefefe" d="M 372.5,2.5 C 373.167,2.5 373.833,2.5 374.5,2.5C 397.181,2.26862 419.848,2.60195 442.5,3.5C 443.833,3.5 445.167,3.5 446.5,3.5C 451.908,5.22423 457.575,6.22423 463.5,6.5C 565.384,23.8573 646.884,74.1906 708,157.5C 725.986,183.629 740.152,211.629 750.5,241.5C 751.39,247.166 753.057,252.5 755.5,257.5C 761.905,277.531 765.905,298.198 767.5,319.5C 768.384,337.483 768.717,355.483 768.5,373.5C 768.5,374.5 768.5,375.5 768.5,376.5C 767.441,387.348 766.441,398.348 765.5,409.5C 764.539,411.265 764.205,413.265 764.5,415.5C 763.778,415.918 763.278,416.584 763,417.5C 762.452,421.17 761.952,424.837 761.5,428.5C 759.951,437.697 757.617,446.697 754.5,455.5C 752.129,460.941 750.129,466.608 748.5,472.5C 703.32,586.266 621.986,660.432 504.5,695C 486.873,699.092 469.206,702.592 451.5,705.5C 445.274,705.388 439.274,706.054 433.5,707.5C 430.5,707.5 427.5,707.5 424.5,707.5C 405.818,707.705 387.152,707.372 368.5,706.5C 364.4,706.763 360.4,706.43 356.5,705.5C 350.457,703.492 344.124,702.492 337.5,702.5C 325.198,699.675 312.865,696.675 300.5,693.5C 293.501,690.391 286.168,688.057 278.5,686.5C 185.257,651.775 116.757,589.441 73,499.5C 69.5806,490.398 66.0806,481.398 62.5,472.5C 60.8709,466.608 58.8709,460.941 56.5,455.5C 53.3826,446.697 51.0493,437.697 49.5,428.5C 49.0482,424.837 48.5482,421.17 48,417.5C 47.7216,416.584 47.2216,415.918 46.5,415.5C 46.7947,413.265 46.4614,411.265 45.5,409.5C 44.5594,398.348 43.5594,387.348 42.5,376.5C 41.18,358.821 41.18,341.154 42.5,323.5C 44.2105,319.119 44.8772,314.453 44.5,309.5C 46.4069,291.623 50.0736,274.289 55.5,257.5C 57.943,252.5 59.6096,247.166 60.5,241.5C 99.4966,137.168 171.163,64.8351 275.5,24.5C 284.169,22.6094 292.502,19.9427 300.5,16.5C 302.359,15.4058 304.359,14.5725 306.5,14C 321.234,11.1627 335.9,8.3294 350.5,5.5C 358.117,5.60164 365.45,4.60164 372.5,2.5 Z"/></g>
<g><path style="opacity:1" fill="#e3e3e3" d="M 372.5,2.5 C 365.45,4.60164 358.117,5.60164 350.5,5.5C 357.589,3.69562 364.923,2.69562 372.5,2.5 Z"/></g>
<g><path style="opacity:1" fill="#e5e5e5" d="M 446.5,3.5 C 452.447,3.70738 458.113,4.70738 463.5,6.5C 457.575,6.22423 451.908,5.22423 446.5,3.5 Z"/></g>
<g><path style="opacity:1" fill="#e6e6e6" d="M 300.5,16.5 C 292.502,19.9427 284.169,22.6094 275.5,24.5C 283.498,21.0573 291.831,18.3906 300.5,16.5 Z"/></g>
<g><path style="opacity:1" fill="#fefefe" d="M 407.5,119.5 C 408.5,126.833 409.5,134.167 410.5,141.5C 411.43,145.4 411.763,149.4 411.5,153.5C 411.302,158.75 411.969,163.75 413.5,168.5C 416.46,194.017 422.46,218.684 431.5,242.5C 427.378,254.989 423.878,267.655 421,280.5C 411.75,329.42 425.583,370.254 462.5,403C 470.705,407.149 479.372,408.483 488.5,407C 515.379,391.889 539.712,373.389 561.5,351.5C 583.34,351.169 605.006,351.503 626.5,352.5C 603.463,372.704 582.296,394.704 563,418.5C 554.138,430.217 546.804,442.884 541,456.5C 539.648,459.72 538.814,463.053 538.5,466.5C 538.268,470.909 536.768,474.909 534,478.5C 508.911,505.966 478.077,523.466 441.5,531C 417.493,534.524 394.16,532.19 371.5,524C 373.214,519.687 375.214,515.52 377.5,511.5C 377.167,510.5 376.5,509.833 375.5,509.5C 342.111,547.728 305.111,581.895 264.5,612C 263.833,612.667 263.167,612.667 262.5,612C 272.099,601.07 280.933,589.57 289,577.5C 302.496,570.177 314.996,561.51 326.5,551.5C 326.167,550.5 325.5,549.833 324.5,549.5C 286.213,567.634 249.546,588.301 214.5,611.5C 214.167,611.167 213.833,610.833 213.5,610.5C 231.962,584.032 253.628,560.365 278.5,539.5C 277.833,538.167 276.833,537.167 275.5,536.5C 264.972,544.195 254.305,551.695 243.5,559C 238.38,560.523 233.38,562.356 228.5,564.5C 227.304,564.154 227.304,563.654 228.5,563C 282.007,523.519 337.673,487.186 395.5,454C 397.037,452.89 397.703,451.39 397.5,449.5C 385.652,453.753 373.986,458.586 362.5,464C 333.723,458.961 306.723,448.961 281.5,434C 275.096,430.265 269.263,425.765 264,420.5C 256.292,407.765 250.292,394.432 246,380.5C 262.662,390.001 280.162,397.668 298.5,403.5C 299.287,402.758 299.953,401.925 300.5,401C 280.884,391.526 261.551,381.526 242.5,371C 233.23,365.449 224.396,359.282 216,352.5C 208.094,340.775 203.261,328.109 201.5,314.5C 209.714,320.108 218.381,324.941 227.5,329C 229.5,329.667 231.5,329.667 233.5,329C 233.957,328.586 234.291,328.086 234.5,327.5C 223.988,321.747 213.988,315.247 204.5,308C 189.394,294.896 174.894,281.063 161,266.5C 156.773,257.593 154.44,248.259 154,238.5C 166.395,255.396 181.228,269.729 198.5,281.5C 199.72,281.113 200.387,280.28 200.5,279C 179.156,257.997 159.656,235.497 142,211.5C 141.5,204.842 141.334,198.175 141.5,191.5C 140.741,184.328 140.741,177.328 141.5,170.5C 180.96,214.7 225.96,252.033 276.5,282.5C 283.206,298.92 291.706,314.253 302,328.5C 304.333,330.833 306.667,333.167 309,335.5C 308.981,338.244 308.314,340.911 307,343.5C 306.333,347.5 306.333,351.5 307,355.5C 312.219,376.491 320.552,396.158 332,414.5C 338.038,421.704 344.538,428.37 351.5,434.5C 352.5,434.167 353.167,433.5 353.5,432.5C 348.777,426.125 344.11,419.791 339.5,413.5C 333.498,402.158 327.998,390.492 323,378.5C 320.654,370.438 318.32,362.438 316,354.5C 315.333,350.5 315.333,346.5 316,342.5C 318.647,333.041 322.147,324.041 326.5,315.5C 329.249,333.66 332.749,351.66 337,369.5C 338.53,373.09 339.864,376.757 341,380.5C 342.356,381.38 343.856,381.714 345.5,381.5C 342.474,359.482 339.307,337.482 336,315.5C 332.43,287.886 331.763,260.22 334,232.5C 335.316,224.74 337.816,217.407 341.5,210.5C 342.758,220.144 343.758,229.811 344.5,239.5C 344.5,239.833 344.5,240.167 344.5,240.5C 344.518,250.086 345.518,259.419 347.5,268.5C 348.807,282.129 351.64,295.463 356,308.5C 358.034,311.909 360.534,314.909 363.5,317.5C 364.72,317.113 365.387,316.28 365.5,315C 356.674,280.447 352.008,245.281 351.5,209.5C 351.403,187.825 351.736,166.158 352.5,144.5C 359.936,131.291 368.603,118.958 378.5,107.5C 378.422,123.302 378.589,139.302 379,155.5C 379.403,160.867 380.07,166.201 381,171.5C 381.278,172.416 381.778,173.082 382.5,173.5C 382.5,173.833 382.5,174.167 382.5,174.5C 382.5,175.833 382.5,177.167 382.5,178.5C 383.833,178.5 385.167,178.5 386.5,178.5C 386.5,166.833 386.5,155.167 386.5,143.5C 386.274,124.011 387.774,104.677 391,85.5C 395.591,78.9053 400.924,72.9053 407,67.5C 404.462,81.3932 402.129,95.3932 400,109.5C 399.333,118.167 399.333,126.833 400,135.5C 400.278,139.126 402.112,141.126 405.5,141.5C 405.509,134.087 406.176,126.753 407.5,119.5 Z"/></g>
<g><path style="opacity:1" fill="#ececec" d="M 382.5,173.5 C 381.778,173.082 381.278,172.416 381,171.5C 380.07,166.201 379.403,160.867 379,155.5C 378.589,139.302 378.422,123.302 378.5,107.5C 378.783,106.711 379.283,106.044 380,105.5C 378.724,128.246 379.558,150.913 382.5,173.5 Z"/></g>
<g><path style="opacity:1" fill="#dfdfdf" d="M 351.5,141.5 C 351.557,142.609 351.89,143.609 352.5,144.5C 351.736,166.158 351.403,187.825 351.5,209.5C 350.252,190.328 350.252,170.995 351.5,151.5C 351.167,149.167 350.833,146.833 350.5,144.5C 349.833,151.655 349.167,158.655 348.5,165.5C 348.169,158.137 348.503,150.803 349.5,143.5C 350.182,142.757 350.849,142.091 351.5,141.5 Z"/></g>
<g><path style="opacity:1" fill="#dbdbdb" d="M 386.5,143.5 C 386.5,155.167 386.5,166.833 386.5,178.5C 385.167,178.5 383.833,178.5 382.5,178.5C 382.5,177.167 382.5,175.833 382.5,174.5C 383.158,175.398 383.824,176.398 384.5,177.5C 385.167,166.007 385.833,154.674 386.5,143.5 Z"/></g>
<g><path style="opacity:1" fill="#e1e1e1" d="M 60.5,241.5 C 59.6096,247.166 57.943,252.5 55.5,257.5C 56.3904,251.834 58.057,246.5 60.5,241.5 Z"/></g>
<g><path style="opacity:1" fill="#e1e1e1" d="M 750.5,241.5 C 752.943,246.5 754.61,251.834 755.5,257.5C 753.057,252.5 751.39,247.166 750.5,241.5 Z"/></g>
<g><path style="opacity:1" fill="#c6c6c6" d="M 312.5,336.5 C 308.715,345.377 308.548,354.377 312,363.5C 317.003,382.167 325.169,399.167 336.5,414.5C 336.685,416.196 337.519,417.529 339,418.5C 339.333,416.953 338.833,415.62 337.5,414.5C 337.957,413.702 338.624,413.369 339.5,413.5C 344.11,419.791 348.777,426.125 353.5,432.5C 353.167,433.5 352.5,434.167 351.5,434.5C 344.538,428.37 338.038,421.704 332,414.5C 320.552,396.158 312.219,376.491 307,355.5C 306.333,351.5 306.333,347.5 307,343.5C 308.314,340.911 308.981,338.244 309,335.5C 306.667,333.167 304.333,330.833 302,328.5C 291.706,314.253 283.206,298.92 276.5,282.5C 225.96,252.033 180.96,214.7 141.5,170.5C 141.217,169.711 140.717,169.044 140,168.5C 139.833,171.5 139.667,174.5 139.5,177.5C 139.354,182.424 140.021,187.091 141.5,191.5C 141.334,198.175 141.5,204.842 142,211.5C 159.656,235.497 179.156,257.997 200.5,279C 200.387,280.28 199.72,281.113 198.5,281.5C 181.228,269.729 166.395,255.396 154,238.5C 154.44,248.259 156.773,257.593 161,266.5C 174.894,281.063 189.394,294.896 204.5,308C 213.988,315.247 223.988,321.747 234.5,327.5C 234.291,328.086 233.957,328.586 233.5,329C 231.5,329.667 229.5,329.667 227.5,329C 218.381,324.941 209.714,320.108 201.5,314.5C 203.261,328.109 208.094,340.775 216,352.5C 224.396,359.282 233.23,365.449 242.5,371C 261.551,381.526 280.884,391.526 300.5,401C 299.953,401.925 299.287,402.758 298.5,403.5C 280.162,397.668 262.662,390.001 246,380.5C 250.292,394.432 256.292,407.765 264,420.5C 269.263,425.765 275.096,430.265 281.5,434C 306.723,448.961 333.723,458.961 362.5,464C 373.986,458.586 385.652,453.753 397.5,449.5C 397.703,451.39 397.037,452.89 395.5,454C 337.673,487.186 282.007,523.519 228.5,563C 227.304,563.654 227.304,564.154 228.5,564.5C 233.38,562.356 238.38,560.523 243.5,559C 254.305,551.695 264.972,544.195 275.5,536.5C 276.833,537.167 277.833,538.167 278.5,539.5C 253.628,560.365 231.962,584.032 213.5,610.5C 213.833,610.833 214.167,611.167 214.5,611.5C 249.546,588.301 286.213,567.634 324.5,549.5C 325.5,549.833 326.167,550.5 326.5,551.5C 314.996,561.51 302.496,570.177 289,577.5C 280.933,589.57 272.099,601.07 262.5,612C 263.167,612.667 263.833,612.667 264.5,612C 305.111,581.895 342.111,547.728 375.5,509.5C 376.5,509.833 377.167,510.5 377.5,511.5C 375.214,515.52 373.214,519.687 371.5,524C 394.16,532.19 417.493,534.524 441.5,531C 478.077,523.466 508.911,505.966 534,478.5C 536.768,474.909 538.268,470.909 538.5,466.5C 539.74,463.976 540.907,461.309 542,458.5C 542.464,459.094 542.631,459.761 542.5,460.5C 541.347,465.77 540.513,471.103 540,476.5C 522.619,496.226 502.119,511.726 478.5,523C 442.332,538.051 405.665,539.384 368.5,527C 367.788,525.575 367.621,524.075 368,522.5C 331.089,563.589 289.922,599.089 244.5,629C 243.549,628.282 243.383,627.449 244,626.5C 260.243,610.641 274.576,593.308 287,574.5C 293.879,571.31 300.379,567.477 306.5,563C 271.554,579.308 238.221,598.475 206.5,620.5C 204.899,619.965 204.399,618.965 205,617.5C 220.497,593.319 238.997,571.486 260.5,552C 254.512,554.849 248.845,558.515 243.5,563C 233.72,564.926 224.554,568.426 216,573.5C 213.659,572.993 213.159,571.826 214.5,570C 266.259,531.257 319.925,495.257 375.5,462C 370.453,463.435 365.62,465.602 361,468.5C 331.309,461.828 303.475,450.662 277.5,435C 272.333,431.167 267.167,427.333 262,423.5C 253.111,408.32 246.278,392.32 241.5,375.5C 245.683,377.757 250.016,379.757 254.5,381.5C 250.37,378.597 246.037,375.93 241.5,373.5C 231.61,367.781 222.11,361.448 213,354.5C 204.246,340.41 198.746,325.077 196.5,308.5C 199.767,310.297 203.1,311.797 206.5,313C 189.428,298.933 173.262,283.766 158,267.5C 153.331,256.657 150.831,245.323 150.5,233.5C 152.947,233.615 154.947,234.615 156.5,236.5C 151.323,228.827 145.657,221.494 139.5,214.5C 137.878,197.526 137.045,180.526 137,163.5C 137.718,162.549 138.551,162.383 139.5,163C 181.114,211.141 229.114,251.307 283.5,283.5C 283.023,284.478 282.357,285.311 281.5,286C 289.255,304.729 299.589,321.562 312.5,336.5 Z"/></g>
<g><path style="opacity:1" fill="#e9e9e9" d="M 156.5,236.5 C 162.134,242.304 167.634,248.304 173,254.5C 173.667,255.167 173.667,255.833 173,256.5C 166.887,250.232 161.387,243.565 156.5,236.5 Z"/></g>
<g><path style="opacity:1" fill="#dcdcdc" d="M 141.5,170.5 C 140.741,177.328 140.741,184.328 141.5,191.5C 140.021,187.091 139.354,182.424 139.5,177.5C 139.667,174.5 139.833,171.5 140,168.5C 140.717,169.044 141.217,169.711 141.5,170.5 Z"/></g>
<g><path style="opacity:1" fill="#efefef" d="M 348.5,166.5 C 345.888,212.564 349.555,258.064 359.5,303C 359.333,304.167 359.167,305.333 359,306.5C 357.815,304.623 356.815,302.623 356,300.5C 349.955,273.601 346.789,246.268 346.5,218.5C 347.167,201.167 347.833,183.833 348.5,166.5 Z"/></g>
<g><path style="opacity:1" fill="#c7c7c7" d="M 467.5,401.5 C 468.842,402.793 470.509,403.626 472.5,404C 477.684,404.816 482.684,404.65 487.5,403.5C 514.663,388.689 538.997,370.022 560.5,347.5C 584.796,348.536 609.129,348.536 633.5,347.5C 633.762,348.978 633.429,350.311 632.5,351.5C 611.517,369.317 592.017,388.65 574,409.5C 560.942,424.955 550.442,441.955 542.5,460.5C 542.631,459.761 542.464,459.094 542,458.5C 540.907,461.309 539.74,463.976 538.5,466.5C 538.814,463.053 539.648,459.72 541,456.5C 546.804,442.884 554.138,430.217 563,418.5C 582.296,394.704 603.463,372.704 626.5,352.5C 627.289,352.217 627.956,351.717 628.5,351C 605.996,350.17 583.663,350.337 561.5,351.5C 539.712,373.389 515.379,391.889 488.5,407C 479.372,408.483 470.705,407.149 462.5,403C 425.583,370.254 411.75,329.42 421,280.5C 423.878,267.655 427.378,254.989 431.5,242.5C 422.46,218.684 416.46,194.017 413.5,168.5C 413.392,163.29 412.725,158.29 411.5,153.5C 411.763,149.4 411.43,145.4 410.5,141.5C 410.457,131.812 409.957,122.145 409,112.5C 407.648,114.594 407.148,116.927 407.5,119.5C 406.176,126.753 405.509,134.087 405.5,141.5C 402.112,141.126 400.278,139.126 400,135.5C 399.333,126.833 399.333,118.167 400,109.5C 402.129,95.3932 404.462,81.3932 407,67.5C 400.924,72.9053 395.591,78.9053 391,85.5C 387.774,104.677 386.274,124.011 386.5,143.5C 385.833,154.674 385.167,166.007 384.5,177.5C 383.824,176.398 383.158,175.398 382.5,174.5C 382.5,174.167 382.5,173.833 382.5,173.5C 379.558,150.913 378.724,128.246 380,105.5C 379.283,106.044 378.783,106.711 378.5,107.5C 368.603,118.958 359.936,131.291 352.5,144.5C 351.89,143.609 351.557,142.609 351.5,141.5C 359.725,126.104 369.725,111.937 381.5,99C 382.965,98.3987 383.965,98.8987 384.5,100.5C 382.862,108.062 382.195,115.728 382.5,123.5C 381.221,133.696 381.388,144.029 383,154.5C 383.499,150.179 383.666,145.846 383.5,141.5C 383.896,126.145 384.729,110.812 386,95.5C 386.803,90.3427 388.136,85.3427 390,80.5C 397.042,73.6256 403.875,66.6256 410.5,59.5C 411.5,59.8333 412.167,60.5 412.5,61.5C 410.321,69.3944 408.654,77.3944 407.5,85.5C 408.833,85.5 410.167,85.5 411.5,85.5C 409.443,139.333 417.443,191.5 435.5,242C 423.899,269.74 419.732,298.573 423,328.5C 427.753,355.901 440.253,379.068 460.5,398C 462.577,399.705 464.91,400.872 467.5,401.5 Z"/></g>
<g><path style="opacity:1" fill="#e7e7e7" d="M 411.5,153.5 C 412.725,158.29 413.392,163.29 413.5,168.5C 411.969,163.75 411.302,158.75 411.5,153.5 Z"/></g>
<g><path style="opacity:1" fill="#e2e2e2" d="M 410.5,141.5 C 409.5,134.167 408.5,126.833 407.5,119.5C 407.148,116.927 407.648,114.594 409,112.5C 409.957,122.145 410.457,131.812 410.5,141.5 Z"/></g>
<g><path style="opacity:1" fill="#d7d7d7" d="M 382.5,123.5 C 382.177,129.69 382.51,135.69 383.5,141.5C 383.666,145.846 383.499,150.179 383,154.5C 381.388,144.029 381.221,133.696 382.5,123.5 Z"/></g>
<g><path style="opacity:1" fill="#f6f6f6" d="M 406.5,87.5 C 407.161,89.134 407.494,90.9674 407.5,93C 405.854,105.813 404.354,118.647 403,131.5C 402.084,116.666 403.25,101.999 406.5,87.5 Z"/></g>
<g><path style="opacity:1" fill="#dedede" d="M 44.5,309.5 C 44.8772,314.453 44.2105,319.119 42.5,323.5C 42.3618,318.586 43.0285,313.919 44.5,309.5 Z"/></g>
<g><path style="opacity:1" fill="#f3f3f3" d="M 315.5,335.5 C 313.969,339.673 312.969,344.006 312.5,348.5C 316.538,372.013 324.538,394.013 336.5,414.5C 325.169,399.167 317.003,382.167 312,363.5C 308.548,354.377 308.715,345.377 312.5,336.5C 313.609,336.443 314.609,336.11 315.5,335.5 Z"/></g>
<g><path style="opacity:1" fill="#c5c5c5" d="M 731.5,387.5 C 726.878,403.982 722.545,420.649 718.5,437.5C 717.749,438.573 716.749,438.74 715.5,438C 681.519,423.628 647.853,408.794 614.5,393.5C 621.5,378.833 628.5,364.167 635.5,349.5C 636.328,348.585 637.328,347.919 638.5,347.5C 639.817,349.159 641.483,350.326 643.5,351C 672.843,361.673 702.177,372.34 731.5,383C 732.413,384.414 732.413,385.914 731.5,387.5 Z"/></g>
<g><path style="opacity:1" fill="#e0e0e0" d="M 561.5,351.5 C 583.663,350.337 605.996,350.17 628.5,351C 627.956,351.717 627.289,352.217 626.5,352.5C 605.006,351.503 583.34,351.169 561.5,351.5 Z"/></g>
<g><path style="opacity:1" fill="#e7e7e7" d="M 767.5,319.5 C 768.309,321.292 768.809,323.292 769,325.5C 769.828,341.672 769.661,357.672 768.5,373.5C 768.717,355.483 768.384,337.483 767.5,319.5 Z"/></g>
<g><path style="opacity:1" fill="#fefefe" d="M 636.5,352.5 C 639.091,353.254 640.924,354.921 642,357.5C 651.1,372.039 659.934,386.705 668.5,401.5C 687.728,396.193 707.062,391.193 726.5,386.5C 727.167,386.833 727.833,387.167 728.5,387.5C 724.318,403.232 719.984,418.898 715.5,434.5C 683.751,421.028 652.084,407.361 620.5,393.5C 619.386,392.277 619.219,390.944 620,389.5C 626.061,377.381 631.561,365.048 636.5,352.5 Z"/></g>
<g><path style="opacity:1" fill="#fefefe" d="M 643.5,355.5 C 644.251,354.427 645.251,354.26 646.5,355C 672.5,364.667 698.5,374.333 724.5,384C 706.745,388.197 689.078,392.697 671.5,397.5C 662.156,383.471 652.823,369.471 643.5,355.5 Z"/></g>
<g><path style="opacity:1" fill="#e7e7e7" d="M 241.5,373.5 C 246.037,375.93 250.37,378.597 254.5,381.5C 250.016,379.757 245.683,377.757 241.5,375.5C 241.5,374.833 241.5,374.167 241.5,373.5 Z"/></g>
<g><path style="opacity:1" fill="#c7c7c7" d="M 351.5,209.5 C 352.008,245.281 356.674,280.447 365.5,315C 365.387,316.28 364.72,317.113 363.5,317.5C 360.534,314.909 358.034,311.909 356,308.5C 351.64,295.463 348.807,282.129 347.5,268.5C 347.147,258.956 346.147,249.623 344.5,240.5C 344.5,240.167 344.5,239.833 344.5,239.5C 344.632,229.137 344.132,218.803 343,208.5C 342.283,209.044 341.783,209.711 341.5,210.5C 337.816,217.407 335.316,224.74 334,232.5C 331.763,260.22 332.43,287.886 336,315.5C 339.307,337.482 342.474,359.482 345.5,381.5C 343.856,381.714 342.356,381.38 341,380.5C 339.864,376.757 338.53,373.09 337,369.5C 332.749,351.66 329.249,333.66 326.5,315.5C 322.147,324.041 318.647,333.041 316,342.5C 315.333,346.5 315.333,350.5 316,354.5C 318.32,362.438 320.654,370.438 323,378.5C 327.998,390.492 333.498,402.158 339.5,413.5C 338.624,413.369 337.957,413.702 337.5,414.5C 338.833,415.62 339.333,416.953 339,418.5C 337.519,417.529 336.685,416.196 336.5,414.5C 324.538,394.013 316.538,372.013 312.5,348.5C 312.969,344.006 313.969,339.673 315.5,335.5C 318.44,324.046 322.44,313.046 327.5,302.5C 328.086,302.709 328.586,303.043 329,303.5C 329.66,311.631 330.827,319.631 332.5,327.5C 333.394,341.135 335.894,354.468 340,367.5C 338.151,352.028 335.984,336.695 333.5,321.5C 329.863,295.957 328.696,270.29 330,244.5C 330.177,237.378 331.177,230.378 333,223.5C 335.388,215.734 338.555,208.401 342.5,201.5C 343.5,201.5 344.5,201.5 345.5,201.5C 345.26,207.227 345.593,212.894 346.5,218.5C 346.789,246.268 349.955,273.601 356,300.5C 356.815,302.623 357.815,304.623 359,306.5C 359.167,305.333 359.333,304.167 359.5,303C 349.555,258.064 345.888,212.564 348.5,166.5C 348.5,166.167 348.5,165.833 348.5,165.5C 349.167,158.655 349.833,151.655 350.5,144.5C 350.833,146.833 351.167,149.167 351.5,151.5C 350.252,170.995 350.252,190.328 351.5,209.5 Z"/></g>
<g><path style="opacity:1" fill="#efefef" d="M 333.5,321.5 C 335.984,336.695 338.151,352.028 340,367.5C 335.894,354.468 333.394,341.135 332.5,327.5C 333.461,325.735 333.795,323.735 333.5,321.5 Z"/></g>
<g><path style="opacity:1" fill="#dbdbdb" d="M 344.5,240.5 C 346.147,249.623 347.147,258.956 347.5,268.5C 345.518,259.419 344.518,250.086 344.5,240.5 Z"/></g>
<g><path style="opacity:1" fill="#d7d7d7" d="M 344.5,239.5 C 343.758,229.811 342.758,220.144 341.5,210.5C 341.783,209.711 342.283,209.044 343,208.5C 344.132,218.803 344.632,229.137 344.5,239.5 Z"/></g>
<g><path style="opacity:1" fill="#e6e6e6" d="M 254.5,381.5 C 257.262,382.38 259.929,383.546 262.5,385C 259.24,385.204 256.573,384.037 254.5,381.5 Z"/></g>
<g><path style="opacity:1" fill="#eaeaea" d="M 731.5,387.5 C 728.145,403.923 724.311,420.256 720,436.5C 719.617,437.056 719.117,437.389 718.5,437.5C 722.545,420.649 726.878,403.982 731.5,387.5 Z"/></g>
<g><path style="opacity:1" fill="#dadada" d="M 42.5,376.5 C 43.5594,387.348 44.5594,398.348 45.5,409.5C 43.0657,398.774 42.0657,387.774 42.5,376.5 Z"/></g>
<g><path style="opacity:1" fill="#dadada" d="M 768.5,376.5 C 768.934,387.774 767.934,398.774 765.5,409.5C 766.441,398.348 767.441,387.348 768.5,376.5 Z"/></g>
<g><path style="opacity:1" fill="#e8e8e8" d="M 467.5,401.5 C 474.051,403.133 480.717,403.799 487.5,403.5C 482.684,404.65 477.684,404.816 472.5,404C 470.509,403.626 468.842,402.793 467.5,401.5 Z"/></g>
<g><path style="opacity:1" fill="#dcdcdc" d="M 46.5,415.5 C 47.2216,415.918 47.7216,416.584 48,417.5C 48.5482,421.17 49.0482,424.837 49.5,428.5C 47.7633,424.458 46.7633,420.124 46.5,415.5 Z"/></g>
<g><path style="opacity:1" fill="#dcdcdc" d="M 764.5,415.5 C 764.237,420.124 763.237,424.458 761.5,428.5C 761.952,424.837 762.452,421.17 763,417.5C 763.278,416.584 763.778,415.918 764.5,415.5 Z"/></g>
<g><path style="opacity:1" fill="#dddddd" d="M 56.5,455.5 C 58.8709,460.941 60.8709,466.608 62.5,472.5C 59.3422,467.367 57.3422,461.7 56.5,455.5 Z"/></g>
<g><path style="opacity:1" fill="#dddddd" d="M 754.5,455.5 C 753.658,461.7 751.658,467.367 748.5,472.5C 750.129,466.608 752.129,460.941 754.5,455.5 Z"/></g>
<g><path style="opacity:1" fill="#e5e5e5" d="M 278.5,686.5 C 286.168,688.057 293.501,690.391 300.5,693.5C 292.832,691.943 285.499,689.609 278.5,686.5 Z"/></g>
<g><path style="opacity:1" fill="#e5e5e5" d="M 337.5,702.5 C 344.124,702.492 350.457,703.492 356.5,705.5C 349.954,705.019 343.621,704.019 337.5,702.5 Z"/></g>
<g><path style="opacity:1" fill="#e0e0e0" d="M 451.5,705.5 C 445.712,706.81 439.712,707.477 433.5,707.5C 439.274,706.054 445.274,705.388 451.5,705.5 Z"/></g>
<g><path style="opacity:1" fill="#e7e7e7" d="M 368.5,706.5 C 387.152,707.372 405.818,707.705 424.5,707.5C 408.005,708.662 391.338,708.828 374.5,708C 372.292,707.809 370.292,707.309 368.5,706.5 Z"/></g>
</svg>
