<svg xmlns="http://www.w3.org/2000/svg" width="832" height="720" viewBox="0 0 832 720" version="1.1">
	<path fill-opacity="0.031" d="M 355 1.589 C 231.092 18.857, 125.337 95.141, 72.484 205.375 C 15.218 324.814, 30.744 465.533, 112.812 570.889 C 167.775 641.448, 248.220 690.007, 337.411 706.463 C 361.128 710.839, 378.533 712.327, 406 712.327 C 433.467 712.327, 450.872 710.839, 474.589 706.463 C 590.819 685.019, 689.298 610.363, 739.516 505.625 C 796.782 386.186, 781.256 245.467, 699.188 140.111 C 642.967 67.936, 563.243 20.602, 468.835 3.347 C 454.977 0.814, 453.018 0.717, 410 0.426 C 375.073 0.191, 363.241 0.441, 355 1.589 M 380 3.589 C 378.075 3.809, 371.591 4.463, 365.590 5.043 C 298.461 11.529, 228.423 40.332, 174.500 83.628 C 151.832 101.829, 123.937 131.292, 107.883 153.991 C 73.592 202.475, 53.298 254.060, 45.326 313 C 42.733 332.169, 42.733 378.831, 45.326 398 C 56.212 478.486, 91.140 547.981, 149.122 604.520 C 166.824 621.781, 180.837 633.114, 201 646.476 C 250.960 679.584, 303.114 698.523, 365.500 706.213 C 378.717 707.843, 433.283 707.843, 446.500 706.213 C 464.188 704.033, 481.111 700.915, 497.354 696.844 C 588.925 673.891, 666.638 617.494, 717.278 537.242 C 737.709 504.865, 753.920 464.320, 761.948 425.517 C 767.375 399.285, 768.500 387.268, 768.500 355.500 C 768.500 333.017, 768.090 323.466, 766.674 313 C 755.788 232.514, 720.860 163.019, 662.878 106.480 C 645.176 89.219, 631.163 77.886, 611 64.524 C 562.916 32.660, 512.461 13.760, 454.500 5.900 C 443.246 4.374, 432.507 3.781, 411.500 3.527 C 396.100 3.341, 381.925 3.369, 380 3.589 M 399.528 70.983 C 388.715 82.705, 387.789 84.602, 386.337 98 C 385.851 102.486, 385.448 103.748, 385.039 102.074 C 384.712 100.740, 383.927 99.476, 383.294 99.265 C 380.927 98.476, 361.819 123.369, 353.945 137.500 C 352.107 140.800, 350.162 143.801, 349.623 144.169 C 349.030 144.574, 348.418 159.953, 348.072 183.169 C 347.757 204.251, 347.275 217.225, 347 212 C 346.531 203.086, 346.361 202.480, 344.250 202.180 C 342.690 201.959, 342 202.371, 342 203.526 C 342 204.442, 341.092 206.467, 339.981 208.026 C 327.847 225.068, 326.266 270.803, 335.581 335.343 C 336.442 341.307, 336.953 346.381, 336.716 346.618 C 336.180 347.154, 333.191 328.040, 331.616 314.008 C 330.657 305.464, 330.119 303.454, 328.722 303.185 C 326.780 302.811, 326.954 302.441, 319.622 322.547 L 314.500 336.594 309.199 330.853 C 301.912 322.962, 296.122 314.065, 288.959 299.756 C 284.802 291.452, 283.058 286.905, 283.442 285.375 C 283.931 283.428, 282.864 282.455, 275.252 277.900 C 232.445 252.286, 187.672 215.502, 152.542 177.085 C 145.458 169.338, 139.401 163.007, 139.081 163.015 C 136.156 163.092, 136.062 164.843, 137.650 189.485 L 139.254 214.379 146.307 223.321 C 152.773 231.517, 153.214 232.370, 151.600 233.551 C 150.002 234.719, 149.944 235.563, 150.975 242.669 C 152.370 252.286, 154.532 260.162, 157.224 265.439 C 159.533 269.964, 178.202 289.410, 190.603 300.206 C 197.563 306.266, 198.610 307.565, 197.304 308.519 C 195.925 309.528, 196.047 310.661, 198.423 318.920 C 202.387 332.698, 206.618 343.762, 210.259 349.869 C 213.721 355.676, 222.877 363.229, 235.178 370.425 C 239.848 373.157, 241.619 374.740, 241.313 375.911 C 240.098 380.558, 257.661 418.661, 263.889 424.889 C 273.072 434.072, 299.120 448.634, 320.446 456.508 C 325.916 458.527, 337.356 462.178, 345.869 464.622 C 362.569 469.415, 361.399 469.385, 369.500 465.221 C 370.167 464.878, 370.167 465.031, 369.500 465.681 C 368.950 466.216, 360.175 471.768, 350 478.018 C 306.555 504.705, 270.088 529.216, 235.250 555.146 C 216.127 569.379, 211.252 574, 215.359 574 C 216.107 574, 220.044 572.474, 224.109 570.609 C 228.174 568.743, 234.200 566.445, 237.500 565.501 C 244.683 563.446, 244.314 563.633, 252.205 558.034 C 258.380 553.652, 258.268 553.815, 246.319 566.534 C 230.064 583.837, 221.429 594.284, 212.457 607.500 C 205.147 618.268, 203.864 621, 206.119 621 C 206.734 621, 214.497 616.338, 223.369 610.640 C 247.137 595.374, 277.419 577.857, 297.750 567.612 C 305.560 563.676, 304.099 565.312, 295.240 570.422 C 288.624 574.238, 286.724 575.986, 282.344 582.287 C 274.868 593.041, 262.438 608.148, 252.275 618.831 C 245.369 626.091, 243.632 628.475, 244.449 629.568 C 245.302 630.709, 247.892 629.230, 258.166 621.737 C 293.063 596.288, 318.635 574.264, 348.571 543.875 C 361.933 530.310, 368.618 524.163, 368.571 525.482 C 368.512 527.117, 369.902 527.870, 376.500 529.777 C 393.273 534.625, 406.970 536.280, 425.500 535.698 C 439.256 535.266, 444.498 534.664, 452.972 532.544 C 482.212 525.227, 506.642 510.759, 532.593 485.389 C 541.263 476.913, 541.718 476.253, 542.386 471.182 C 545.298 449.080, 566.063 417.850, 601.018 383 C 615.497 368.564, 632.874 352.532, 633.419 353.106 C 633.624 353.323, 629.525 362.663, 624.308 373.862 C 619.092 385.061, 615.201 394.591, 615.662 395.039 C 616.907 396.251, 716.780 439, 718.366 439 C 720.173 439, 734.025 384.425, 732.584 382.984 C 732.043 382.443, 730.934 382, 730.119 382 C 728.204 382, 641.879 350.121, 640.314 348.835 C 639.540 348.200, 638.445 348.226, 637.164 348.912 C 635.668 349.713, 635.071 349.627, 634.658 348.551 C 634.199 347.354, 628.449 347.228, 597.096 347.726 L 560.075 348.313 550.278 357.907 C 534.104 373.744, 514.465 388.715, 495.119 399.954 C 487.850 404.176, 487.620 404.235, 480.119 403.789 C 469.702 403.170, 462.857 399.712, 454.491 390.843 C 421.927 356.324, 414.290 311.719, 431.573 257 C 433.571 250.675, 435.641 244.966, 436.172 244.314 C 436.784 243.563, 436.792 242.462, 436.193 241.314 C 434.414 237.905, 428.087 218.208, 425.603 208.347 C 417.809 177.405, 413.033 136.834, 413.010 101.357 C 413.001 88.443, 412.766 86.124, 411.410 85.604 C 410.535 85.268, 409.392 85.258, 408.870 85.581 C 408.321 85.920, 408.151 85.182, 408.468 83.834 C 409.550 79.225, 413 61.761, 413 60.890 C 413 57.962, 408.271 61.505, 399.528 70.983 M 399.732 76.778 C 393.705 82.863, 392.933 84.116, 391.586 90 C 388.966 101.449, 387.915 115.743, 387.306 148.250 C 386.831 173.586, 386.444 180, 385.391 180 C 381.345 180, 379.500 165.493, 379.500 133.676 L 379.500 107.852 376.259 111.676 C 370.762 118.161, 362.382 130.140, 357.916 137.898 L 353.656 145.297 352.674 167.898 C 350.624 215.039, 355.002 267.826, 364.041 304.980 C 365.577 311.293, 366.620 316.806, 366.358 317.230 C 364.720 319.881, 358.321 314.028, 355.409 307.213 C 349.518 293.428, 345.644 265.628, 342.697 216 L 342.430 211.500 340.110 216.382 C 330.050 237.549, 331.267 289.245, 343.513 360.907 C 345.431 372.131, 347 381.694, 347 382.157 C 347 382.621, 345.852 383, 344.449 383 C 342.448 383, 341.557 382.191, 340.320 379.250 C 337.512 372.578, 332.298 349.887, 330.038 334.500 C 328.826 326.250, 327.514 318.657, 327.123 317.626 C 326.123 314.997, 317 342.279, 317 347.897 C 317 353.435, 321.236 370.031, 325.705 382 C 332.037 398.958, 340.333 414.119, 350.255 426.861 C 354.646 432.500, 355.038 433.390, 353.715 434.713 C 352.392 436.037, 351.367 435.393, 344.675 429.036 C 328.571 413.739, 316.752 391.705, 308.932 362.403 C 306.048 351.598, 305.984 350.908, 307.333 345.322 C 308.106 342.120, 309.057 338.747, 309.447 337.827 C 309.924 336.700, 309.520 335.814, 308.211 335.113 C 303.008 332.328, 289.155 310.445, 281.363 292.702 C 277.541 283.999, 277.420 283.854, 270 279.264 C 230.207 254.644, 201.167 231.369, 164.750 194.907 C 151.687 181.829, 141.021 171.887, 141.048 172.814 C 141.074 173.741, 141.662 183.126, 142.355 193.669 C 143.805 215.723, 142.376 212.285, 158.451 232.376 C 170.506 247.442, 187.454 266.194, 195.093 272.918 C 200.845 277.982, 202.098 280.204, 199.948 281.532 C 196.788 283.485, 174.653 264.514, 160.242 247.500 L 155.160 241.500 156.500 248.595 C 159.025 261.957, 161.386 265.865, 175.592 280.195 C 197.598 302.394, 213.032 315.124, 227.699 323.174 C 233.062 326.117, 235 327.721, 235 329.215 C 235 330.976, 234.562 331.163, 231.750 330.608 C 227.502 329.769, 215.721 324.162, 208.503 319.545 C 205.356 317.532, 202.589 316.078, 202.353 316.313 C 201.391 317.275, 208.499 337.079, 212.649 345 C 216.618 352.576, 217.885 354.062, 224.301 358.666 C 236.621 367.508, 254.603 377.731, 278.246 389.336 C 294.303 397.217, 300.907 400.941, 300.705 402 C 300.530 402.912, 299.517 403.400, 298.119 403.246 C 294.289 402.822, 269.196 393.114, 257.759 387.631 C 245.521 381.764, 245.944 381.164, 252.212 395.500 C 258.923 410.849, 264.713 420.633, 269.279 424.341 C 281.470 434.239, 302.430 445.428, 322.713 452.865 C 335.351 457.499, 357.726 464, 361.036 464 C 362.237 464, 370.388 460.820, 379.149 456.934 C 387.909 453.048, 395.847 450.017, 396.789 450.198 C 400.913 450.992, 397.403 454.002, 381 463.736 C 344.736 485.256, 306.285 509.753, 276.748 530.153 C 255.175 545.053, 231.789 562.123, 232.279 562.612 C 232.495 562.829, 235.109 562.200, 238.086 561.215 C 241.422 560.112, 249.354 555.301, 258.752 548.680 C 267.141 542.771, 274.606 537.705, 275.342 537.422 C 276.078 537.140, 277.250 537.596, 277.946 538.435 C 279.027 539.737, 276.547 542.557, 261.068 557.626 C 251.088 567.342, 239.417 579.388, 235.133 584.395 C 228.102 592.613, 216.433 607.594, 214.616 610.733 C 214.224 611.411, 220.647 607.723, 228.890 602.537 C 255.482 585.806, 290.925 566.085, 313.766 555.311 C 322.329 551.272, 325.565 550.172, 326.390 551.018 C 327.210 551.858, 326.454 553.055, 323.500 555.595 C 318.406 559.976, 298.603 573.329, 293.988 575.495 C 292.057 576.402, 289.403 578.799, 288.091 580.822 C 283.967 587.184, 272.335 602.410, 267.318 608.015 C 261.789 614.191, 262.481 613.920, 273.500 605.586 C 304.658 582.022, 338.842 550.165, 371.779 514 C 377.434 507.791, 378.918 509.395, 375.439 517.957 C 373.385 523.014, 373.130 524.464, 374.182 525.119 C 376.040 526.277, 391.082 529.730, 400 531.046 C 411.025 532.672, 433.943 532.399, 444.500 530.515 C 474.668 525.131, 505.024 507.989, 530.741 481.816 C 536.353 476.104, 537.093 474.864, 538.083 469.509 C 541.492 451.067, 553.562 429.766, 574.907 404.520 C 583.389 394.488, 606.028 371.379, 619 359.512 L 627.500 351.735 594.191 352.301 L 560.883 352.867 550.839 362.508 C 533.763 378.898, 516.229 392.052, 495.500 404.024 L 486.500 409.222 479.500 408.584 C 470.600 407.773, 461.776 403.734, 454.882 397.315 C 441.454 384.811, 427.738 362.125, 422.581 343.892 C 415.065 317.313, 417.288 285.341, 429.046 250.912 L 431.979 242.325 429.522 236.057 C 420.375 212.717, 413.007 175.518, 410.015 137.581 C 409.455 130.476, 408.822 124.488, 408.609 124.275 C 408.396 124.062, 407.896 127.997, 407.499 133.018 C 406.960 139.820, 406.385 142.299, 405.243 142.737 C 403.080 143.567, 401.280 140.668, 399.934 134.183 C 398.460 127.083, 399.976 109.956, 404.101 87.113 C 405.728 78.100, 406.909 70.575, 406.725 70.391 C 406.541 70.207, 403.394 73.081, 399.732 76.778 M 407.195 91.500 C 407.215 93.150, 407.439 93.704, 407.693 92.731 C 407.947 91.758, 407.930 90.408, 407.656 89.731 C 407.382 89.054, 407.175 89.850, 407.195 91.500 M 405.242 103 C 404.571 107.675, 403.809 115.550, 403.547 120.500 C 403.160 127.827, 403.435 126.620, 405.029 114 C 406.106 105.475, 406.869 97.600, 406.724 96.500 C 406.580 95.400, 405.913 98.325, 405.242 103 M 384.286 110.500 C 384.294 113.250, 384.488 114.256, 384.718 112.736 C 384.947 111.216, 384.941 108.966, 384.704 107.736 C 384.467 106.506, 384.279 107.750, 384.286 110.500 M 383.336 129 C 383.336 133.125, 383.513 134.813, 383.728 132.750 C 383.944 130.688, 383.944 127.313, 383.728 125.250 C 383.513 123.188, 383.336 124.875, 383.336 129 M 348.328 230.500 C 348.333 234.350, 348.513 235.802, 348.730 233.728 C 348.946 231.653, 348.943 228.503, 348.722 226.728 C 348.501 224.952, 348.324 226.650, 348.328 230.500 M 349.300 245 C 349.300 248.025, 349.487 249.262, 349.716 247.750 C 349.945 246.238, 349.945 243.762, 349.716 242.250 C 349.487 240.738, 349.300 241.975, 349.300 245 M 350.554 258.500 C 351.392 271.288, 356.428 300.906, 357.570 299.763 C 357.789 299.544, 357.030 294.446, 355.883 288.433 C 354.736 282.420, 352.950 271.425, 351.914 264 C 350.480 253.722, 350.155 252.409, 350.554 258.500 M 312.116 342.098 C 309.819 348.687, 311.566 359.110, 318.042 377.459 C 321.368 386.883, 327.583 401, 328.405 401 C 328.691 401, 327.406 397.453, 325.550 393.117 C 320.945 382.358, 316.648 369.183, 313.983 357.647 C 312.143 349.685, 311.941 347.272, 312.826 343.786 C 314.117 338.701, 313.670 337.639, 312.116 342.098 M 337.158 350 C 337.158 351.375, 337.385 351.938, 337.662 351.250 C 337.940 350.563, 337.940 349.438, 337.662 348.750 C 337.385 348.063, 337.158 348.625, 337.158 350 M 635.690 358.098 C 634.360 361.069, 630.260 369.977, 626.579 377.894 C 622.899 385.810, 620.250 392.642, 620.694 393.076 C 621.137 393.510, 642.875 403.069, 669 414.319 L 716.500 434.772 722.287 411.756 C 725.469 399.097, 727.828 388.494, 727.528 388.195 C 727.228 387.895, 713.892 390.877, 697.891 394.822 C 681.891 398.767, 668.395 401.744, 667.900 401.438 C 667.405 401.132, 667 400.225, 667 399.422 C 667 398.215, 648.706 368.418, 640.402 356.098 L 638.109 352.696 635.690 358.098 M 338.079 355.583 C 338.127 356.748, 338.364 356.985, 338.683 356.188 C 338.972 355.466, 338.936 354.603, 338.604 354.271 C 338.272 353.939, 338.036 354.529, 338.079 355.583 M 645 355.505 C 645 356.258, 668.974 394.228, 670.427 395.777 C 671.393 396.806, 676.509 395.847, 696.813 390.829 C 710.666 387.405, 721.995 384.355, 721.989 384.052 C 721.982 383.748, 706.120 377.680, 686.739 370.567 C 667.357 363.453, 650.038 357.035, 648.250 356.303 C 646.462 355.572, 645 355.213, 645 355.505" stroke="none" fill="black" fill-rule="evenodd"/>
	<path fill-opacity="0.106" d="M 367 0.610 C 365.625 0.838, 359.325 1.728, 353 2.588 C 243.625 17.453, 144.995 82.178, 88.752 176 C 62.894 219.134, 48.221 261.982, 40.809 316 C 39.049 328.825, 39.049 382.175, 40.809 395 C 44.488 421.809, 49.737 445.083, 56.824 466 C 100.500 594.913, 214.241 688.314, 352 708.388 C 385.483 713.267, 426.517 713.267, 460 708.388 C 570.367 692.305, 667.170 628.546, 723.248 535 C 749.106 491.866, 763.779 449.018, 771.191 395 C 772.951 382.175, 772.951 328.825, 771.191 316 C 768.834 298.820, 765.978 283.705, 762.499 270 C 731.430 147.597, 635.192 49.535, 510.916 13.650 C 494.427 8.888, 482.155 6.161, 462.075 2.796 C 450.980 0.937, 444.791 0.660, 409.500 0.441 C 387.500 0.305, 368.375 0.381, 367 0.610 M 381.575 3.114 C 290.316 8.927, 203.592 48.789, 140.894 113.740 C 85.598 171.023, 52.206 242.692, 43.862 322 C 43.197 328.325, 42.652 343.400, 42.652 355.500 C 42.652 378.552, 43.735 392.501, 47.078 412.500 C 69.877 548.925, 173.731 660.583, 311.172 696.439 C 392.470 717.648, 477.056 711.217, 554.354 677.949 C 615.106 651.803, 668.967 608.080, 706.542 554.407 C 741.085 505.065, 761.771 449.515, 768.138 389 C 769.695 374.199, 769.695 336.801, 768.138 322 C 761.771 261.485, 741.085 205.935, 706.542 156.593 C 668.967 102.920, 615.106 59.197, 554.354 33.051 C 499.182 9.306, 441.435 -0.700, 381.575 3.114 M 400.152 71.029 C 391.389 80.369, 389.596 82.844, 388.450 87.191 C 386.450 94.771, 384.896 109.274, 383.969 129 L 383.147 146.500 383.586 125 C 383.827 113.175, 384.132 102.600, 384.262 101.500 C 384.722 97.632, 381.924 99.583, 374.937 108 C 367.181 117.345, 358.174 130.244, 352.993 139.430 C 349.708 145.253, 349.631 145.666, 348.739 162.430 C 347.741 181.190, 348.411 222.961, 350 241 C 351.667 259.925, 353.980 276.654, 357.046 291.945 C 358.639 299.890, 359.762 306.571, 359.541 306.792 C 358.720 307.613, 354.833 293.133, 353.020 282.500 C 350.763 269.263, 348.457 245.939, 346.990 221.504 C 346.395 211.607, 345.543 203.143, 345.096 202.696 C 344.044 201.644, 338.391 210.465, 335.876 217.083 C 331.925 227.482, 330.885 235.036, 330.314 257.500 C 329.681 282.358, 331.173 302.868, 336.021 336 C 337.591 346.725, 339.116 357.525, 339.410 360 C 339.935 364.406, 339.915 364.385, 338.487 359 C 335.339 347.132, 329.312 306.922, 330.414 305.139 C 331.288 303.726, 328.281 302.947, 327.210 304.309 C 325.874 306.009, 316.423 332.436, 314.023 341.183 L 312.003 348.546 315.400 362.031 C 319.221 377.203, 324.989 392.513, 331.494 404.750 C 333.906 409.288, 335.714 413, 335.511 413 C 334.631 413, 325.816 397.851, 322.708 391 C 319.159 383.176, 314.091 368.428, 311.711 359 C 310.188 352.969, 310.371 346.416, 312.214 341 C 313.828 336.257, 313.514 335.356, 308.492 330.334 C 306.101 327.943, 301.975 322.728, 299.323 318.745 C 292.512 308.517, 281.836 286.764, 283.037 285.563 C 284.711 283.889, 284.184 283.377, 275.750 278.488 C 254.483 266.160, 224.014 244.147, 201.500 224.845 C 189.107 214.219, 156.004 181.766, 145.126 169.576 C 140.480 164.371, 138.663 162.937, 137.801 163.799 C 136.180 165.420, 138.691 210.306, 140.636 214.500 C 142.331 218.153, 163.168 244.306, 173.701 256 C 177.912 260.675, 179.435 262.700, 177.086 260.500 C 173.126 256.792, 162.074 244.085, 155.828 236.059 C 150.291 228.943, 149.238 237.253, 153.543 254.093 C 156.432 265.390, 158.133 267.752, 176.196 285.547 C 185.713 294.922, 196.200 304.987, 199.500 307.913 C 202.800 310.838, 203.891 312.092, 201.925 310.699 C 196.079 306.556, 195.683 308.203, 199.441 321.034 C 203.892 336.231, 205.313 339.981, 209.755 348.254 C 213.042 354.377, 214.557 355.980, 222.142 361.365 C 226.895 364.739, 233.600 369.231, 237.043 371.348 C 241.123 373.856, 242.876 375.458, 242.080 375.951 C 240.358 377.015, 246.427 392.935, 255.066 410.017 C 261.594 422.924, 262.208 423.764, 268.701 428.658 C 288.691 443.726, 311.905 454.436, 346.480 464.541 C 357.320 467.710, 362.522 468.812, 363.358 468.118 C 364.734 466.976, 374 462.887, 374 463.422 C 374 463.614, 370.738 465.701, 366.750 468.060 C 340.939 483.324, 297.891 511.086, 270 530.454 C 246.560 546.732, 214 570.982, 214 572.162 C 214 574.289, 217.061 573.868, 222.992 570.925 C 229.736 567.579, 239.400 564, 241.691 564 C 242.449 564, 247.666 560.793, 253.285 556.873 L 263.500 549.747 248.446 565.123 C 240.166 573.581, 229.679 585.167, 225.140 590.872 C 213.587 605.392, 204.590 618.990, 205.761 620.161 C 206.364 620.764, 211.990 617.677, 221.107 611.740 C 244.927 596.226, 268.778 582.355, 294.500 569.056 C 308.864 561.629, 309.633 562.450, 295.709 570.346 C 288.973 574.165, 287.231 575.763, 282.853 582.132 C 275.152 593.338, 263.908 607.003, 253.269 618.087 C 246.387 625.258, 243.985 628.385, 244.762 629.162 C 245.539 629.939, 248.902 628.051, 256.672 622.477 C 289.127 599.196, 315.498 576.633, 346.291 545.800 C 359.376 532.698, 369.572 522.931, 368.948 524.096 C 368.325 525.262, 368.194 526.577, 368.657 527.020 C 370.054 528.354, 393.902 533.885, 402.974 534.978 C 449.049 540.533, 491.355 524.702, 529.866 487.495 C 539.929 477.773, 540.835 476.588, 541.479 472.295 C 543.977 455.634, 553.906 436.761, 572.410 413.502 C 580.428 403.423, 619.991 363.150, 629.766 355.116 C 636.052 349.948, 636.454 348.547, 624.081 374.934 C 619.069 385.623, 615.313 394.659, 615.734 395.015 C 618.077 396.996, 718.286 439.097, 718.929 438.371 C 719.588 437.626, 733 385.467, 733 383.648 C 733 383.292, 732.421 383, 731.713 383 C 729.765 383, 643.837 351.096, 641.240 349.409 C 639.479 348.265, 638.512 348.191, 636.863 349.074 C 635.251 349.936, 634.564 349.913, 633.985 348.976 C 633.397 348.024, 624.949 347.855, 596.644 348.230 L 560.063 348.714 548.393 359.932 C 525.521 381.920, 491.968 405, 482.875 405 C 477.314 405, 467.886 402.135, 462.885 398.926 C 457.137 395.238, 447.404 384.175, 440.181 373.121 C 419.435 341.371, 416.655 300.801, 432.059 254.610 L 436.025 242.721 432.109 231.570 C 424.473 209.824, 418.657 182.617, 415.528 154 C 413.822 138.397, 411.813 102.512, 412.114 93 C 412.306 86.922, 412.179 86.505, 410.160 86.579 C 407.503 86.677, 407.497 87.014, 410.408 73 C 412.673 62.098, 412.799 59.999, 411.191 60 C 410.811 60.001, 405.843 64.964, 400.152 71.029 M 400.366 75.501 C 396.590 79.682, 392.947 84.403, 392.272 85.992 C 389.465 92.592, 387.863 111.673, 387.298 145.250 C 386.771 176.597, 386.605 179, 384.968 179 C 381.894 179, 380.500 165.038, 380.500 134.250 C 380.500 119.262, 380.325 107, 380.110 107 C 378.838 107, 362.307 129.674, 357.352 138.215 L 352.545 146.500 352.522 190.500 C 352.504 226.055, 352.838 237.487, 354.260 250.060 C 356.655 271.232, 359.455 288.035, 363.136 303.338 C 366.551 317.535, 366.180 320.397, 361.496 315.996 C 352.729 307.760, 347.249 280.739, 343.956 229.500 C 343.355 220.150, 342.723 212.050, 342.552 211.500 C 342.099 210.042, 338.270 219.167, 336.553 225.798 C 330.163 250.474, 332.617 299.210, 343.410 362 C 346.759 381.482, 346.753 382.940, 343.322 382.985 C 340.610 383.020, 334.654 361.149, 330.536 336.035 C 329.141 327.529, 328 319.316, 328 317.785 C 328 312.072, 326.174 315.422, 321.139 330.370 C 315.279 347.771, 315.239 348.665, 319.602 364.861 C 323.250 378.404, 326.537 387.067, 332.706 399.391 C 338.814 411.593, 341.116 415.364, 348.719 425.632 C 351.623 429.555, 354 433.268, 354 433.882 C 354 436.449, 350.831 434.602, 344.310 428.234 C 328.615 412.909, 317.288 391.805, 309.478 363.338 C 306.085 350.968, 306.054 350.125, 308.682 341.728 L 310.175 336.957 304.682 331.023 C 301.660 327.759, 296.861 321.236, 294.016 316.526 C 289.094 308.378, 278.001 286.076, 277.999 284.325 C 277.998 283.871, 275.715 282.218, 272.925 280.651 C 266.088 276.811, 243.023 261.503, 233.340 254.380 C 205.472 233.878, 173.465 205.073, 148.094 177.663 C 144.105 173.353, 140.716 169.978, 140.563 170.163 C 140.410 170.348, 140.917 179.950, 141.689 191.500 C 143.294 215.505, 141.909 211.889, 156.624 230.500 C 168.655 245.718, 183.599 262.475, 193.159 271.467 C 198.426 276.423, 201.005 279.545, 200.632 280.517 C 199.773 282.755, 198.932 282.434, 190.945 276.825 C 182.845 271.137, 169.540 258.158, 161.022 247.635 C 158.009 243.913, 155.371 241.388, 155.159 242.022 C 154.577 243.768, 156.926 254.727, 159.164 260.710 C 163.779 273.044, 207.850 313.159, 228.750 324.049 C 235.214 327.417, 235.482 327.694, 234.209 329.696 C 233.022 331.563, 222.005 327.261, 211.090 320.670 C 205.914 317.545, 201.536 315.130, 201.362 315.304 C 200.858 315.809, 205.967 331.926, 208.700 338.448 C 214.690 352.745, 220.357 357.990, 245.500 372.506 C 256.231 378.702, 296.334 399, 297.844 399 C 299.416 399, 300.920 401.511, 300.122 402.803 C 299.154 404.368, 274.714 395.445, 258.143 387.476 C 251.879 384.464, 246.628 382, 246.473 382 C 245.671 382, 250.902 394.142, 257.106 406.680 C 264.928 422.487, 266.127 423.800, 281.754 433.658 C 299.257 444.700, 320.150 453.540, 346.615 461.100 L 360.877 465.175 378.204 457.587 C 387.734 453.414, 396.038 450, 396.658 450 C 397.279 450, 398.035 450.648, 398.339 451.440 C 398.727 452.452, 395.716 454.729, 388.196 459.109 C 341.299 486.421, 283.994 523.711, 244.250 552.776 C 230.620 562.744, 227.899 565.077, 231.750 563.495 C 232.712 563.099, 235.571 562.210, 238.101 561.518 C 241.029 560.717, 248.803 555.994, 259.471 548.535 C 274.761 537.844, 276.379 536.950, 277.821 538.393 C 279.263 539.835, 278.702 540.605, 271.451 547.131 C 249.814 566.605, 221.882 597.822, 213.599 611.788 C 213.179 612.496, 218.385 609.538, 225.168 605.214 C 250.954 588.775, 278.397 573.291, 307.798 558.590 C 323.583 550.697, 327 549.517, 327 551.958 C 327 553.267, 310.082 565.544, 299.612 571.833 C 290.991 577.011, 289.621 578.277, 283.836 586.410 C 280.351 591.309, 273.761 599.789, 269.191 605.254 C 264.621 610.720, 261.471 614.848, 262.191 614.429 C 265.655 612.413, 291.030 592.224, 303.500 581.563 C 319.561 567.833, 346.962 541.230, 363.821 523 C 378.088 507.573, 380.232 506.818, 374.647 519.190 L 372.078 524.881 377.362 526.417 C 418.208 538.291, 457.501 533.401, 493.332 511.986 C 505.843 504.508, 515.579 496.824, 528.114 484.535 C 537.236 475.592, 537.763 474.845, 538.412 469.951 C 541.823 444.235, 570.073 405.346, 615.997 363.145 C 622.323 357.331, 627.616 352.321, 627.758 352.012 C 627.901 351.703, 613.051 351.613, 594.758 351.813 L 561.500 352.176 554.500 358.906 C 536.719 376.001, 518.443 390.127, 499.949 401.071 L 487.823 408.247 480.085 407.799 C 465.950 406.981, 455.149 399.801, 443 383.148 C 432.451 368.690, 426.751 356.881, 422.207 340.074 C 419.833 331.291, 419.617 328.847, 419.598 310.500 C 419.580 292.534, 419.851 289.229, 422.260 278 C 423.734 271.125, 426.580 260.434, 428.582 254.242 L 432.223 242.983 427.674 229.242 C 418.074 200.241, 412.861 171.491, 410.069 132.144 C 409.547 124.798, 408.951 118.618, 408.743 118.410 C 408.535 118.202, 407.815 123.307, 407.143 129.755 C 406.471 136.203, 405.519 141.881, 405.027 142.373 C 404.502 142.898, 403.283 141.872, 402.070 139.884 C 398.194 133.526, 399.437 112.488, 405.543 81.063 C 406.872 74.223, 407.796 68.463, 407.596 68.262 C 407.396 68.062, 404.142 71.320, 400.366 75.501 M 405.667 99 C 404.659 105.325, 403.664 115.450, 403.456 121.500 C 403.088 132.241, 403.137 132.040, 405.546 113 C 408.350 90.840, 408.429 81.673, 405.667 99 M 634.046 361.250 C 631.943 365.788, 627.922 374.400, 625.111 380.389 C 622.300 386.378, 620.002 391.778, 620.003 392.389 C 620.006 393.168, 703.656 430.126, 715.969 434.789 C 716.388 434.947, 719.436 424.265, 722.741 411.051 C 728.475 388.130, 728.654 387.046, 726.626 387.500 C 722.946 388.324, 671.580 401.059, 669.859 401.574 C 668.710 401.918, 667.895 401.138, 667.139 398.968 C 666.037 395.807, 639.231 353, 638.353 353 C 638.088 353, 636.150 356.712, 634.046 361.250 M 657.427 376.120 C 664.870 387.879, 671.306 397.439, 671.730 397.363 C 672.153 397.288, 684.127 394.403, 698.338 390.952 C 714.452 387.040, 723.639 384.378, 722.750 383.880 C 721.261 383.047, 648.847 356.139, 645.697 355.249 C 644.531 354.919, 648.675 362.293, 657.427 376.120 M 340.079 366.583 C 340.127 367.748, 340.364 367.985, 340.683 367.188 C 340.972 366.466, 340.936 365.603, 340.604 365.271 C 340.272 364.939, 340.036 365.529, 340.079 366.583 M 245 376.430 C 245 376.705, 245.900 377.411, 247 378 C 248.100 378.589, 249 378.845, 249 378.570 C 249 378.295, 248.100 377.589, 247 377 C 245.900 376.411, 245 376.155, 245 376.430 M 250 379.466 C 250 379.741, 252.250 381.106, 255 382.500 C 257.750 383.894, 260 384.809, 260 384.534 C 260 384.259, 257.750 382.894, 255 381.500 C 252.250 380.106, 250 379.191, 250 379.466" stroke="none" fill="black" fill-rule="evenodd"/>
	<path fill-opacity="0.086" d="M 364.151 1.536 C 280.559 11.127, 205.241 46.679, 146.122 104.450 C 51.411 197.002, 16.568 330.143, 54.138 455.931 C 81.674 548.120, 148.773 627.247, 237 671.569 C 277.945 692.139, 318.815 704.236, 365.500 709.602 C 386.008 711.960, 425.992 711.960, 446.500 709.602 C 531.683 699.810, 606.324 664.741, 665.860 606.539 C 725.379 548.354, 760.647 476.803, 770.624 394 C 773 374.276, 773.009 336.853, 770.642 317 C 760.844 234.819, 725.121 162.342, 665.878 104.450 C 606.533 46.458, 530.628 10.730, 447.293 1.563 C 429.719 -0.370, 380.903 -0.386, 364.151 1.536 M 379.500 2.602 C 350.574 5.476, 335.576 7.917, 314.646 13.159 C 239.643 31.945, 171.924 74.288, 123.102 132.926 C 79.694 185.062, 54.147 243.481, 44.306 313.109 C 41.815 330.737, 41.815 380.263, 44.306 397.891 C 48.654 428.656, 55.703 456.272, 65.561 481.159 C 108.181 588.758, 200.795 669.324, 314.646 697.841 C 347.367 706.036, 368.482 708.500, 406 708.500 C 443.518 708.500, 464.633 706.036, 497.354 697.841 C 572.357 679.055, 640.076 636.712, 688.898 578.074 C 732.306 525.938, 757.853 467.519, 767.694 397.891 C 770.185 380.263, 770.185 330.737, 767.694 313.109 C 761.724 270.868, 751.125 236.143, 733.476 201 C 686.527 107.512, 600.291 38.911, 497.354 13.165 C 466.059 5.338, 447.005 2.981, 411.500 2.547 C 396.100 2.359, 381.700 2.384, 379.500 2.602 M 409.315 61.402 C 408.849 62.234, 404.323 67.134, 399.258 72.290 C 390.559 81.145, 389.968 82.020, 388.586 88.082 C 386.358 97.859, 384.896 112.740, 384.066 134.122 L 383.313 153.500 383.241 133 C 383.201 121.725, 383.512 109.800, 383.931 106.500 C 384.866 99.136, 383.623 97.876, 379.787 102.304 C 367.996 115.916, 350.305 142.066, 351.537 144.061 C 351.799 144.483, 351.447 145.018, 350.756 145.248 C 349.771 145.576, 349.508 155.590, 349.539 191.583 C 349.582 243.326, 350.747 257.901, 357.556 291.897 C 359.472 301.465, 360.850 309.483, 360.618 309.716 C 359.843 310.490, 355.844 298.608, 353.983 290 C 350.680 274.728, 347.721 246.603, 346.381 217.750 C 345.919 207.793, 345.327 203, 344.559 203 C 342.719 203, 336.300 215.876, 334.089 224 C 326.759 250.935, 328.944 293.772, 341.512 369.500 C 341.925 371.988, 341.852 372.137, 341.083 370.373 C 338.181 363.717, 330.050 318.074, 330.015 308.250 C 329.985 299.879, 327.492 303.430, 321.232 320.758 C 312.564 344.752, 312.133 347.381, 314.952 359.066 C 319.517 377.992, 327.746 398.740, 336.023 412.192 C 339.960 418.589, 339.799 419.339, 335.659 413.894 C 327.212 402.784, 318.857 384.915, 313.500 366.500 C 309.884 354.070, 309.413 349.094, 311.302 343.304 C 312.164 340.662, 312.786 337.699, 312.684 336.720 C 312.583 335.742, 310.338 332.680, 307.695 329.917 C 301.315 323.246, 295.376 313.906, 288.054 299.028 C 283.720 290.222, 282.277 286.328, 282.920 285.179 C 283.646 283.881, 281.904 282.433, 273.650 277.475 C 234.522 253.974, 205.477 230.686, 166.221 191.341 C 151.217 176.303, 138.505 164, 137.971 164 C 136.733 164, 136.717 163.283, 138.574 190.822 L 140.148 214.165 148.738 225.333 C 158.721 238.311, 169.639 251.364, 179.400 261.989 C 183.668 266.634, 182.310 265.494, 175.841 259 C 170.089 253.225, 162.658 245.060, 159.328 240.857 C 151.489 230.960, 150.192 231.393, 151.865 243.347 C 153.004 251.489, 154.121 255.820, 157.279 264.337 C 159.431 270.140, 187.177 297.489, 208 314.331 C 212.813 318.224, 208.292 315.870, 202.576 311.506 C 196.553 306.908, 196.103 308.132, 199.392 320.173 C 202.390 331.150, 205.395 339.008, 210.088 348.138 C 213.795 355.350, 219.428 360.214, 235.189 369.816 C 241.474 373.645, 242.788 374.872, 242.384 376.538 C 241.120 381.750, 259.112 420.257, 265.385 425.765 C 281.747 440.131, 315.619 456.053, 347.847 464.529 C 353.156 465.925, 358.291 467.508, 359.257 468.047 C 360.560 468.773, 362.323 468.364, 366.070 466.465 C 372.241 463.337, 376.852 461.547, 375.500 462.803 C 374.950 463.314, 366.850 468.369, 357.500 474.037 C 309.413 503.188, 249.729 543.648, 218.849 568.029 C 211.515 573.820, 214.023 574.796, 224.101 570.074 C 228.753 567.894, 234.796 565.582, 237.530 564.938 C 243.669 563.489, 242.884 563.915, 254.697 555.621 L 264.494 548.741 249.408 564.244 C 241.111 572.770, 230.491 584.530, 225.807 590.376 C 214.375 604.646, 204.650 619.050, 205.724 620.124 C 206.214 620.614, 211.571 617.698, 218.046 613.415 C 231.617 604.439, 255.552 589.997, 273.073 580.214 C 289.020 571.309, 311.290 560.271, 308 562.902 C 304.690 565.550, 290.474 574, 289.330 574 C 288.836 574, 287.628 575.360, 286.646 577.022 C 280.675 587.130, 262.576 609.264, 249.990 621.850 C 245.755 626.085, 244.049 628.449, 244.733 629.133 C 246.577 630.977, 286.417 600.697, 313 577.248 C 326.741 565.126, 350.402 542.117, 362.346 529.261 C 366.556 524.729, 370 521.602, 370 522.311 C 370 523.020, 369.467 524.132, 368.817 524.783 C 367.116 526.484, 367.814 526.862, 377.651 529.575 C 394.165 534.128, 403.490 535.370, 421 535.346 C 444.949 535.313, 459.956 531.892, 481.709 521.508 C 499.779 512.883, 514.642 502.193, 531.751 485.517 C 539.157 478.299, 541.002 475.930, 541.001 473.644 C 540.995 459.940, 555.064 433.683, 575.638 409 C 585.250 397.469, 616.812 365.693, 627.288 357 C 630.934 353.975, 633.816 350.825, 633.693 350 C 633.498 348.692, 628.795 348.540, 596.854 348.811 L 560.238 349.122 550.869 358.142 C 534.044 374.340, 513.428 390.015, 495.181 400.482 C 486.966 405.195, 486.773 405.248, 479.654 404.792 C 466.830 403.969, 459.173 398.708, 445.798 381.532 C 430.968 362.487, 423.284 341.201, 422.285 316.393 C 421.431 295.175, 424.960 273.317, 432.820 251.157 L 435.779 242.815 433.401 236.749 C 421.049 205.229, 413.643 160.784, 412.324 110.250 C 411.841 91.776, 411.391 86, 410.433 86 C 408.944 86, 408.739 87.260, 405.780 114.500 C 403.501 135.494, 403.500 135.497, 403.191 126 C 402.848 115.456, 404.642 101.162, 409.152 78.500 C 410.794 70.250, 412.219 62.873, 412.319 62.108 C 412.577 60.125, 410.326 59.596, 409.315 61.402 M 400.249 75.279 C 396.321 79.251, 392.656 83.706, 392.105 85.180 C 388.960 93.592, 385.404 144.051, 386.198 169 C 386.449 176.903, 386.248 178.500, 385.003 178.500 C 382.069 178.500, 380.678 164.596, 380.586 134.345 C 380.539 118.860, 380.174 106.392, 379.776 106.638 C 377.931 107.779, 361.754 130.395, 357.413 137.901 L 352.555 146.302 351.605 169.401 C 349.638 217.274, 354.419 272.373, 363.531 306.839 C 366.439 317.837, 366.350 317, 364.604 317 C 361.793 317, 357.100 310.040, 354.623 302.199 C 349.841 287.063, 346.825 266.173, 344.993 235.500 C 344.368 225.050, 343.605 214.925, 343.296 213 L 342.734 209.500 339.930 215.500 C 335.334 225.334, 333.885 234.398, 333.296 257 C 332.543 285.902, 335.059 313.430, 342.543 358.166 C 344.444 369.533, 346 379.545, 346 380.416 C 346 381.295, 345.170 382, 344.136 382 C 339.855 382, 333.684 356.755, 327.759 315 C 327.432 312.701, 327.262 312.821, 325.636 316.500 C 321.812 325.153, 316 344.182, 316 348.052 C 316 350.299, 317.161 356.719, 318.579 362.319 C 324.612 386.136, 335.809 409.715, 349.223 426.853 C 352.866 431.507, 353.898 433.502, 353.085 434.315 C 351.375 436.025, 338.002 422.224, 330.491 411 C 321.237 397.170, 314.437 381.304, 309.394 361.777 C 306.732 351.468, 306.696 347.369, 309.209 340.336 C 310.285 337.324, 310.107 336.914, 305.512 331.836 C 298.477 324.061, 292.742 314.778, 284.557 297.919 L 277.308 282.987 269.404 278.185 C 248.471 265.467, 221.222 245.660, 201 228.461 C 194.675 223.082, 178.363 207.541, 164.750 193.927 C 140.227 169.401, 140.001 169.208, 140.063 172.837 C 140.098 174.852, 140.683 184.691, 141.364 194.702 L 142.603 212.905 148.982 221.202 C 162.864 239.259, 173.070 251.128, 186.671 265.033 C 196.203 274.778, 200.628 279.984, 200.103 280.834 C 198.066 284.130, 177.482 266.332, 159.239 245.500 L 153.984 239.500 154.576 243.500 C 155.583 250.315, 157.882 258.850, 159.910 263.303 C 162.348 268.654, 191.263 297.242, 206.364 309.231 C 215.054 316.131, 229.699 325.574, 234.500 327.375 C 235.111 327.604, 235.019 328.260, 234.263 329.062 C 232.320 331.123, 223.921 327.983, 211.620 320.595 C 205.286 316.791, 201 314.755, 201 315.551 C 201 318.003, 207.791 337.654, 210.525 343.111 C 212.009 346.075, 214.283 349.912, 215.577 351.637 C 220.942 358.790, 244.494 373.205, 277.691 389.654 C 293.936 397.703, 300.726 401.551, 300.361 402.501 C 299.953 403.564, 297.864 403.139, 290.671 400.531 C 275.328 394.968, 263.250 389.937, 254.413 385.428 C 249.786 383.067, 246 381.477, 246 381.895 C 246 385.537, 263.232 420.513, 266.338 423.175 C 276.946 432.266, 300.141 445.037, 319.957 452.697 C 330.720 456.858, 357.643 465, 360.635 465 C 361.383 465, 369.287 461.797, 378.199 457.882 C 395.607 450.235, 397.143 449.730, 398.169 451.320 C 398.561 451.927, 386.747 459.649, 369.669 469.948 C 335.931 490.294, 303.712 510.873, 279.500 527.539 C 259.971 540.982, 227.870 564.204, 228.268 564.601 C 228.415 564.749, 232.128 563.636, 236.518 562.128 C 242.737 559.992, 248.035 556.909, 260.499 548.174 C 274.357 538.462, 276.653 537.173, 277.654 538.541 C 278.623 539.866, 277.092 541.701, 268.154 549.927 C 255.967 561.144, 242.354 575.127, 233.079 585.953 C 227.448 592.526, 214.678 609.256, 212.595 612.787 C 212.177 613.495, 216.260 611.218, 221.668 607.726 C 247.803 590.852, 272.629 576.717, 303.838 560.943 C 318.878 553.341, 325.744 550.349, 326.465 551.082 C 327.182 551.811, 326.610 552.804, 324.600 554.317 C 314.119 562.205, 304.453 568.842, 297.764 572.742 C 290.885 576.754, 289.297 578.285, 283.420 586.576 C 279.786 591.704, 272.742 600.719, 267.769 606.610 C 259.223 616.732, 258.986 617.134, 263.458 613.923 C 293.095 592.639, 335.731 554.152, 365.283 522.007 C 371.094 515.687, 376.163 510.830, 376.547 511.214 C 376.932 511.599, 376.104 514.745, 374.708 518.207 C 373.312 521.668, 372.469 524.797, 372.835 525.159 C 374.080 526.394, 394.468 530.857, 404.430 532.077 C 416.955 533.610, 437.477 532.692, 449.130 530.076 C 478.080 523.579, 502.712 509.508, 528.555 484.704 L 537.102 476.500 539.529 466.592 C 546.291 438.982, 571.453 404.827, 613.938 365.589 C 622.222 357.938, 629 351.454, 629 351.179 C 629 350.904, 613.901 350.959, 595.447 351.302 L 561.895 351.924 549.197 363.583 C 525.212 385.605, 492.375 408, 484.069 408 C 472.044 408, 460.722 402.762, 451.798 393.070 C 417.622 355.953, 410.322 308.506, 429.965 251.166 L 432.820 242.831 428.967 232.031 C 419.424 205.279, 412.202 165.005, 410.357 128.250 C 409.991 120.963, 409.394 115, 409.031 115 C 408.667 115, 407.724 120.963, 406.935 128.250 C 405.801 138.723, 405.186 141.500, 404 141.500 C 398.261 141.500, 398.948 115.794, 405.598 81.688 C 406.982 74.589, 407.952 68.619, 407.753 68.420 C 407.554 68.221, 404.178 71.308, 400.249 75.279 M 637.913 348.747 C 636.945 348.952, 632.697 356.975, 627.033 369.292 C 621.922 380.406, 617.105 390.525, 616.329 391.778 C 614.854 394.157, 615.276 395.984, 617.309 396.023 C 617.964 396.035, 640.775 405.662, 668 417.415 C 704.939 433.362, 717.784 438.495, 718.618 437.642 C 719.546 436.694, 732.472 387.327, 732.493 384.649 C 732.497 384.181, 730.700 383.188, 728.500 382.441 C 714.413 377.663, 640.571 349.944, 640.090 349.254 C 639.765 348.790, 638.786 348.562, 637.913 348.747 M 635.677 357.098 C 634.339 360.069, 630.017 369.415, 626.073 377.868 C 622.129 386.320, 619.037 393.326, 619.201 393.437 C 622.294 395.524, 716.474 434.900, 716.989 434.322 C 718 433.187, 729.186 387.853, 728.599 387.266 C 728.339 387.006, 715.115 389.989, 699.213 393.896 C 683.311 397.803, 669.836 401, 669.267 401 C 668.698 401, 668.024 400.199, 667.768 399.220 C 667.369 397.696, 647.244 365.249, 640.402 355.098 L 638.109 351.696 635.677 357.098 M 644.266 355.250 C 645.036 357.257, 668.878 395.096, 670.379 396.693 C 671.241 397.610, 677.715 396.369, 698.407 391.321 C 714.553 387.381, 724.751 384.449, 723.907 383.989 C 723.133 383.568, 705.175 376.828, 684 369.011 C 662.825 361.195, 645.086 354.546, 644.580 354.236 C 644.074 353.926, 643.933 354.382, 644.266 355.250 M 245.470 376.951 C 246.194 378.123, 267.996 389.345, 268.512 388.811 C 268.677 388.640, 263.406 385.652, 256.798 382.170 C 250.190 378.689, 245.092 376.340, 245.470 376.951" stroke="none" fill="black" fill-rule="evenodd"/>
	<path fill-opacity="0.104" d="M 373 1.107 C 217.866 14.686, 87.950 122.969, 50.455 269.942 C 43.321 297.905, 40.007 325.047, 40.007 355.500 C 40.007 377.741, 41.126 391.819, 44.544 412.558 C 69.637 564.814, 194.744 684.792, 352 707.408 C 385.740 712.260, 426.260 712.260, 460 707.408 C 606.359 686.359, 725.903 580.768, 761.545 441.058 C 768.679 413.095, 771.993 385.953, 771.993 355.500 C 771.993 333.259, 770.874 319.181, 767.456 298.442 C 742.362 146.176, 617.266 26.209, 460 3.592 C 435.619 0.086, 397.200 -1.012, 373 1.107 M 381.575 2.040 C 251.687 11.052, 136.746 85.646, 79.542 198.051 C 28.535 298.278, 28.535 412.722, 79.542 512.949 C 97.030 547.313, 119.203 577.309, 147.621 605.047 C 201.417 657.558, 269.754 692.132, 344 704.404 C 367.783 708.335, 380.438 709.343, 406 709.343 C 431.562 709.343, 444.217 708.335, 468 704.404 C 592.403 683.842, 697.795 600.740, 744.947 486.031 C 779.087 402.978, 779.087 308.022, 744.947 224.969 C 726.517 180.134, 699.520 140.254, 664.379 105.953 C 604.613 47.615, 526.351 11.325, 442.482 3.057 C 427.261 1.556, 396.055 1.036, 381.575 2.040 M 400.243 71.787 C 393.128 79.438, 389.886 83.727, 389.092 86.537 C 387.019 93.870, 384.999 115.345, 384.298 137.500 C 383.841 151.930, 383.345 158.124, 382.858 155.500 C 381.871 150.186, 381.909 124.140, 382.922 111 C 383.368 105.225, 383.523 100.275, 383.266 100 C 381.422 98.021, 352 138.512, 352 143.029 C 352 145.359, 354.131 143.661, 356.115 139.750 C 359.226 133.614, 371.163 116.331, 376.281 110.550 L 380.664 105.600 380.603 131.550 C 380.565 147.814, 381.019 160.673, 381.820 166 C 384.753 185.524, 385.590 182.308, 386.309 148.750 C 386.956 118.577, 388.126 102.470, 390.521 90.724 C 391.825 84.333, 392.369 83.440, 400.126 74.982 C 404.649 70.050, 408.463 66.130, 408.602 66.269 C 408.742 66.408, 408.195 69.667, 407.386 73.511 C 401.133 103.247, 398.763 131.383, 401.887 138.788 C 403.605 142.861, 405.377 142.462, 405.719 137.923 C 406.213 131.385, 409.058 107.609, 409.387 107.280 C 409.568 107.099, 410.029 113.374, 410.412 121.225 C 412.415 162.386, 418.258 197.461, 428.121 227.542 L 433.053 242.583 429.630 253.042 C 414.173 300.268, 416.532 340.649, 436.617 372.642 C 451.210 395.886, 463.702 405.775, 480 406.985 C 488.887 407.645, 490.769 406.822, 511 393.434 C 526.394 383.246, 537.171 374.618, 551.011 361.401 L 561.654 351.237 595.577 350.796 C 614.235 350.554, 629.703 350.516, 629.951 350.712 C 630.199 350.908, 626.599 354.491, 621.951 358.675 C 607.872 371.346, 582.022 397.859, 572.883 409 C 553.246 432.941, 541.483 454.337, 539.424 469.859 C 538.784 474.689, 538.258 475.406, 528.126 485.270 C 500.806 511.867, 471.865 527.244, 440.308 531.932 C 430.064 533.453, 410.184 533.242, 398.544 531.488 C 389.819 530.173, 373.234 526.335, 372.095 525.367 C 371.872 525.178, 372.943 522.076, 374.474 518.474 C 376.005 514.871, 376.954 511.621, 376.584 511.250 C 376.213 510.880, 372.717 514.160, 368.814 518.538 C 346.270 543.828, 305.299 581.985, 278.286 602.847 C 255.855 620.170, 255.009 620.574, 265.408 609 C 269.826 604.082, 286.620 582.192, 288.687 578.657 C 289.134 577.892, 293.784 574.711, 299.020 571.587 C 312.092 563.788, 326.794 552.790, 326.252 551.215 C 325.334 548.546, 262.050 582.556, 228.228 603.895 C 219.577 609.353, 212.343 613.664, 212.151 613.476 C 211.580 612.918, 225.714 594.202, 234.055 584.470 C 238.311 579.504, 249.965 567.463, 259.951 557.712 C 269.938 547.962, 277.814 539.507, 277.453 538.924 C 276.499 537.381, 275.820 537.771, 258.998 549.534 C 247.261 557.741, 241.997 560.787, 236.580 562.503 C 232.686 563.737, 228.600 565.096, 227.500 565.522 C 226.400 565.948, 229.550 563.208, 234.500 559.432 C 269.087 533.052, 327.660 494.368, 379.750 463.505 C 389.788 457.558, 398 452.311, 398 451.846 C 398 449.917, 393.410 451.366, 378.500 458 C 369.847 461.850, 361.731 465, 360.464 465 C 357.420 465, 336.070 458.883, 323.500 454.410 C 308.563 449.094, 284.781 436.925, 273.672 428.912 C 268.266 425.013, 263.559 422.108, 263.211 422.456 C 261.567 424.099, 281.881 437.623, 298 445.617 C 312.645 452.879, 330.250 459.397, 348.702 464.388 L 361.905 467.959 368.702 464.884 C 384.821 457.592, 383.965 458.353, 359 473.506 C 330.370 490.883, 297.523 512.106, 273.612 528.675 C 249.227 545.572, 215 570.825, 215 571.918 C 215 573.972, 216.872 573.586, 223.868 570.090 C 231.684 566.185, 236.379 564.435, 241.279 563.597 C 242.808 563.336, 245.733 561.826, 247.779 560.243 C 249.826 558.660, 255.325 554.708, 260 551.462 L 268.500 545.559 253.500 560.530 C 234 579.991, 217.767 599.584, 206.583 617.157 C 204.007 621.204, 206.097 621.294, 211.574 617.373 C 219.319 611.828, 248.073 594.083, 264 585.018 C 281.732 574.926, 313 558.601, 313 559.436 C 313 560.255, 297.464 570.338, 292.712 572.602 C 289.892 573.945, 286.925 577.228, 281.094 585.453 C 272.435 597.668, 257.007 615.951, 249.273 623.162 C 246.448 625.796, 244.572 628.307, 244.960 628.935 C 245.389 629.630, 252.353 625.056, 263.573 616.711 C 298.329 590.858, 320.811 571.203, 351.379 539.947 C 362.170 528.912, 371 520.157, 371 520.491 C 371 520.826, 370.324 522.406, 369.499 524.002 L 367.998 526.905 371.749 527.950 C 393.888 534.115, 414.440 536.484, 432.314 534.932 C 468 531.834, 498.449 516.907, 528.648 487.708 L 539.809 476.916 540.968 470.261 C 545.799 442.518, 573.155 405.695, 622 361.183 C 628.325 355.419, 633.667 350.270, 633.870 349.741 C 634.104 349.132, 620.716 348.906, 597.370 349.126 L 560.500 349.473 550.364 359.047 C 531.223 377.127, 508.816 393.751, 491.735 402.543 L 484.174 406.436 477.589 405.308 C 467.798 403.631, 462.408 400.582, 454.186 392.071 C 424.918 361.776, 415.357 323.866, 425.097 276.740 C 427.244 266.351, 433.401 246.199, 434.880 244.720 C 435.325 244.275, 434.162 239.847, 432.296 234.879 C 419.872 201.802, 412.317 154.206, 411.722 105.254 C 411.579 93.523, 411.131 87.006, 410.468 87.004 C 409.860 87.001, 408.461 96.145, 407.064 109.250 C 405.760 121.488, 404.374 132.625, 403.984 134 C 403.370 136.166, 403.177 135.879, 402.539 131.848 C 401.364 124.426, 404.593 98.778, 410.029 72.360 C 411.113 67.091, 412 62.379, 412 61.890 C 412 59.699, 409.621 61.702, 400.243 71.787 M 350.344 148.750 C 349.934 150.813, 349.594 169.375, 349.590 190 C 349.580 237.753, 352.172 266.009, 359.667 299.828 C 361.048 306.058, 361.944 311.389, 361.659 311.675 C 360.706 312.628, 357.124 304.366, 355.039 296.407 C 350.987 280.939, 346.441 240.469, 345.869 214.777 C 345.749 209.430, 345.347 204.562, 344.974 203.959 C 344.016 202.409, 338.419 211.471, 336.011 218.469 C 331.632 231.197, 330.574 240.242, 330.628 264.500 C 330.661 279.019, 331.314 293.400, 332.399 303.500 C 334.234 320.574, 339.058 354.368, 341.523 367.408 C 342.345 371.757, 342.857 375.477, 342.659 375.674 C 341.964 376.369, 337.950 361.327, 335.536 348.981 C 334.193 342.110, 332.137 329.293, 330.968 320.499 C 329.800 311.705, 328.666 304.333, 328.450 304.116 C 328.233 303.900, 327.568 305.023, 326.972 306.611 C 326.376 308.200, 323.910 314.715, 321.492 321.090 C 319.075 327.464, 316.148 336.339, 314.989 340.813 L 312.880 348.946 316.497 362.723 C 321.752 382.736, 328.450 398.843, 338.139 414.767 C 341.483 420.262, 341.763 421.062, 339.662 419.117 C 332.110 412.126, 320.764 390.423, 314.506 371 C 310.088 357.289, 309.010 347.305, 311.343 341.720 C 313.323 336.984, 312.881 335.837, 306.325 328.691 C 297.618 319.200, 281.176 289.170, 282.465 285.111 C 282.869 283.838, 281.324 282.443, 276.251 279.501 C 265.034 272.994, 235.206 252.653, 223.500 243.527 C 198.933 224.375, 166.451 194.161, 146.146 171.573 C 142.227 167.214, 138.717 163.950, 138.347 164.320 C 137.815 164.852, 139.443 201.542, 140.455 211.814 C 140.854 215.860, 160.894 241.342, 180.316 262.500 C 188.873 271.821, 189.082 272.146, 183.400 267.282 C 177.294 262.057, 169.063 253.181, 159.026 241 C 156.080 237.425, 153.184 234.500, 152.589 234.500 C 150.395 234.500, 153.330 252.228, 157.225 262.500 C 159.233 267.797, 161.375 270.375, 175.500 284.500 C 189.144 298.144, 198.611 306.480, 214.500 318.839 L 217.500 321.172 213.500 318.900 C 211.300 317.651, 206.878 314.872, 203.673 312.725 C 200.468 310.578, 197.629 309.038, 197.364 309.303 C 197.099 309.568, 197.616 312.421, 198.514 315.643 C 202.394 329.563, 205.528 338.060, 209.827 346.310 C 213.806 353.946, 215.290 355.766, 220.959 359.962 C 230.044 366.685, 241.196 373.483, 258.616 382.913 C 266.802 387.345, 273.155 390.978, 272.734 390.986 C 271.366 391.011, 252.905 382.113, 247.773 378.955 C 245.028 377.266, 242.542 376.125, 242.248 376.418 C 240.708 377.959, 259.903 421, 262.130 421 C 263.499 421, 263.386 420.720, 256.062 405.915 C 249.605 392.861, 245.324 382.330, 246.148 381.528 C 246.342 381.340, 251.290 383.546, 257.144 386.432 C 266.791 391.187, 296.653 403, 299.026 403 C 302.647 403, 297.094 399.644, 276.250 389.234 C 251.323 376.785, 236.538 368.339, 223.952 359.356 C 216.138 353.779, 212.398 348.901, 208.002 338.551 C 205.773 333.301, 199.792 313.875, 200.261 313.406 C 200.414 313.253, 203.680 315.180, 207.519 317.687 C 214.901 322.508, 226.649 328.300, 231.250 329.388 C 236.453 330.618, 234.161 327.595, 226.885 323.632 C 207.627 313.143, 165.760 275.291, 159.259 262.489 C 156.911 257.866, 153.684 244.209, 154.169 240.944 C 154.452 239.034, 155.218 239.634, 159.486 245.107 C 172.675 262.019, 200 285.650, 200 280.144 C 200 279.674, 194.693 273.936, 188.208 267.394 C 175.898 254.978, 160.758 237.301, 149.052 221.676 L 142.177 212.500 141.068 193.500 C 140.458 183.050, 139.755 172.940, 139.507 171.034 C 139.088 167.813, 140.312 168.870, 156.882 186.034 C 194.226 224.717, 235.653 258.315, 272.231 279.586 C 275.933 281.739, 278.970 284.044, 278.981 284.709 C 279.015 286.869, 288.747 306.804, 294.068 315.613 C 296.921 320.335, 301.926 327.055, 305.191 330.545 C 310.454 336.171, 310.999 337.133, 309.993 339.012 C 307.069 344.476, 307.077 351.107, 310.021 362 C 315.625 382.737, 322.210 398.166, 331.178 411.574 C 337.638 421.233, 351.732 435.668, 353.235 434.165 C 353.948 433.452, 352.863 431.523, 349.746 427.960 C 343.843 421.211, 333.830 404.329, 328.362 391.904 C 323.426 380.689, 317.788 362.713, 316.103 352.817 C 315.022 346.469, 315.122 345.642, 318.104 336.334 C 321.941 324.356, 327.086 310.753, 327.589 311.256 C 327.793 311.460, 328.888 318.123, 330.022 326.063 C 335.015 361.007, 341.873 385.460, 345.629 381.705 C 345.927 381.406, 345.015 374.488, 343.602 366.331 C 330.354 289.843, 328.986 239.271, 339.519 215.378 C 342.476 208.669, 343.997 207.759, 344.010 212.691 C 344.024 218.033, 345.789 243.372, 347.061 256.500 C 349.404 280.677, 353.147 299.208, 357.579 308.576 C 360.034 313.765, 363.523 317.810, 364.609 316.725 C 364.937 316.397, 364.034 311.232, 362.604 305.248 C 359.097 290.583, 355.413 268.442, 353.293 249.292 C 351.898 236.687, 351.540 224.570, 351.522 189.250 C 351.510 164.912, 351.408 145, 351.295 145 C 351.183 145, 350.755 146.688, 350.344 148.750 M 636.335 350.250 C 635.905 350.938, 631.017 361.187, 625.474 373.028 L 615.395 394.555 665.948 416.284 C 693.751 428.235, 717.054 438.010, 717.731 438.006 C 718.408 438.003, 719.271 436.762, 719.650 435.250 C 720.028 433.738, 723.078 421.640, 726.426 408.367 L 732.515 384.235 689.508 368.451 C 665.853 359.770, 644.728 351.843, 642.562 350.834 C 637.897 348.661, 637.362 348.611, 636.335 350.250 M 632.221 364.080 C 620.156 389.745, 618.689 393.023, 619.091 393.424 C 619.886 394.220, 715.395 435, 716.463 435 C 717.557 435, 729.494 388.894, 728.850 387.156 C 728.657 386.637, 715.231 389.501, 699.013 393.519 C 682.795 397.537, 669.183 400.613, 668.763 400.354 C 668.343 400.094, 668 399.480, 668 398.989 C 668 398.094, 640.579 354.312, 638.934 352.580 C 638.422 352.041, 635.638 356.812, 632.221 364.080 M 643.556 355.143 C 645.209 357.924, 670.253 397.516, 670.602 397.900 C 670.802 398.120, 683.379 395.263, 698.551 391.551 C 713.722 387.839, 725.961 384.628, 725.748 384.415 C 725.350 384.017, 649.378 355.853, 645.125 354.526 C 643.275 353.950, 642.928 354.086, 643.556 355.143" stroke="none" fill="black" fill-rule="evenodd"/>
</svg>