<svg version="1.2" xmlns="http://www.w3.org/2000/svg" viewBox="0 0 589 545" width="589" height="545"><style>.a{fill:#fff}</style><path fill-rule="evenodd" class="a" d="m267.6 0.3c0.1 0.2-0.6 5-1.7 10.8-1.1 5.7-2.9 16.2-3.9 23.4-1.1 7.1-2 17.4-2 22.7 0 6.5 0.5 11 1.5 13.3 0.8 1.9 2.2 3.5 3 3.5 1.2 0 1.7-2 2.2-8.6 0.5-4.7 1.2-9 1.8-9.4 0.6-0.6 1.3 2.9 1.8 9.8 0.5 5.9 1.5 16.3 2.3 23.2 0.8 6.9 2.3 17.9 3.4 24.5 1.1 6.6 3.4 17.4 5 24 1.6 6.6 4.9 17.7 11.5 37.4l-3.8 11.6c-2 6.3-4.9 17.2-6.4 24.2-2.3 11-2.7 15.3-2.7 30.8-0.1 11.4 0.4 20.2 1.2 24 0.7 3.3 2.5 9.8 4 14.5 1.4 4.7 4.6 12.3 7 17 2.4 4.7 6.4 11.4 9 15 2.5 3.6 8.3 10.1 12.7 14.6 6.4 6.5 9.2 8.6 14 10.4 3.3 1.2 9.1 2.5 13 2.7 6.9 0.5 7.1 0.5 15.5-4.4 4.7-2.7 12.5-7.6 17.5-11 4.9-3.3 12.4-8.7 16.5-12 4.1-3.2 12.9-10.9 31.5-28l32.7-0.6c18.1-0.4 33-0.4 33.2 0 0.3 0.5-5.4 6.2-12.6 12.8-7.2 6.6-18.4 17.6-24.9 24.5-6.5 6.9-15.2 16.8-19.5 22-4.2 5.2-10.4 13.5-13.7 18.5-3.2 4.9-7.5 12.1-9.4 16-2 3.8-4.6 9.9-5.8 13.5-1.3 3.6-2.6 8.7-3 11.5-0.7 4.6-1.5 5.7-9.9 13.9-5 4.9-12.7 11.7-17.1 15.1-4.4 3.4-11.2 8.3-15 10.7-3.9 2.5-10.4 6.2-14.5 8.3-4.1 2.1-12 5.2-17.5 7.1-5.5 1.8-13.8 4.1-18.5 5.1-6.5 1.3-12.7 1.8-26 1.7-13.9-0.1-19.6-0.5-27.5-2.2-5.5-1.2-12.4-2.8-15.3-3.7-4.8-1.4-5.1-1.7-4.3-3.8 0.4-1.2 1.8-4.2 3-6.7 1.6-3.4 1.8-4.7 0.8-5.2-0.7-0.5-1.8 0-2.5 1-0.7 0.9-8 8.9-16.2 17.7-8.2 8.8-22.2 22.8-31.2 31.2-9 8.3-20.6 18.8-25.8 23.3-5.2 4.4-14 11.6-19.5 15.9-5.5 4.2-11.7 9.1-13.8 10.7-2.1 1.6-3.8 2.4-3.7 1.9 0-0.6 3.7-5.5 8.1-11 4.5-5.5 10.3-13.2 12.9-17 3.6-5.5 5.9-7.7 10.6-10.4 3.2-1.9 8.6-5.2 11.9-7.4 3.3-2.2 9-6.3 12.8-9.1 3.7-2.8 6.7-5.4 6.7-5.9 0-0.4-0.3-0.9-0.8-1.1-0.4-0.3-6.6 2.3-13.7 5.8-7.2 3.4-20 10-28.5 14.6-8.5 4.6-22 12.1-30 16.8-8 4.7-20.1 12-27 16.4-6.9 4.3-12.6 7.6-12.8 7.3-0.1-0.3 1.5-2.9 3.5-5.8 2-2.8 7.5-9.9 12.2-15.7 4.7-5.8 15.1-17.1 23.1-25.1 8-8 17.1-16.8 20.2-19.5 5-4.3 5.5-5.1 4.5-6.7-1.1-1.7-2.6-0.8-17.7 9.7-11.3 7.9-18.5 12.1-22.8 13.5-3.4 1.2-6.2 1.8-6.2 1.3 0-0.4 2.3-2.5 5.2-4.7 2.9-2.2 11.8-8.6 19.8-14.4 8-5.7 25.7-17.9 39.5-27.1 13.7-9.2 35.1-23 47.5-30.7 12.4-7.7 30-18.5 39.2-23.9 9.9-5.9 16.4-10.4 16.2-11.2-0.2-0.7-1.4-1-2.7-0.7-1.2 0.2-9.4 3.7-34.2 14.8l-7-1.8c-3.9-0.9-14.4-4.2-23.5-7.2-9.1-3-21.5-7.8-27.5-10.7-6.1-2.8-14.8-7.5-19.5-10.4-4.7-2.8-11-7.1-14-9.4-4.7-3.7-6.4-6.1-11.4-15.8-3.3-6.3-7.4-15.1-9.2-19.5-1.8-4.4-3.1-8.2-2.9-8.5 0.3-0.3 3.5 1.1 7.2 3.2 3.8 2 10.8 5.3 15.8 7.3 4.9 2.1 13.8 5.5 19.7 7.6 9 3.2 10.9 3.6 11.3 2.4 0.4-1.1-4.2-3.8-17.8-10.3-10-4.9-24.1-12.1-31.2-16.1-7.2-4.1-17.5-10.4-23-14.1-5.5-3.7-11.2-8.3-12.6-10.1-1.4-1.9-3.8-5.7-5.1-8.4-1.4-2.8-3.9-9.1-5.5-14-1.7-5-3.3-10.2-3.7-11.8-0.3-1.5-0.4-2.7-0.1-2.7 0.3 0 4.7 2.5 9.7 5.5 5.1 3.1 11.8 6.5 14.8 7.6 3 1.1 6.1 1.9 6.9 1.7 0.8-0.2 1.6-0.8 1.8-1.3 0.2-0.6-1.1-1.7-2.9-2.5-1.8-0.8-7.8-4.4-13.3-8.1-5.5-3.7-13.6-9.8-18-13.5-4.4-3.7-14.7-13.3-22.8-21.3-9.1-8.9-15.8-16.4-17.2-19.1-1.3-2.5-2.8-6.5-3.5-9-0.7-2.5-1.5-6.6-1.9-9.2-0.3-2.6-0.3-4.8 0.1-4.8 0.5 0 3.4 3.2 6.5 7.1 3.2 4 10.8 12 16.9 17.8 6 5.8 13.4 11.8 16.2 13.4 3.7 1.9 5.3 2.3 5.6 1.4 0.2-0.6-6-7.7-13.7-15.7-7.8-8-19.7-21.4-26.5-29.8-6.7-8.3-13.3-16.9-14.7-19-2.4-3.4-2.7-5.1-4-24.2-0.7-11.3-1.2-20.8-0.9-21.3 0.2-0.4 5 4.1 10.6 10 5.6 6 16.1 16.5 23.3 23.4 7.1 7 18.6 17.5 25.5 23.4 6.9 5.9 17 14.2 22.5 18.5 5.5 4.2 15.4 11.5 22 16.1 6.6 4.6 16.9 11.3 22.8 14.9 6.2 3.7 11 7.3 11.3 8.5 0.4 1.1 3.3 7.4 6.5 14 3.1 6.6 8.1 15.6 11 20 2.9 4.4 7.2 10 13.9 17l-1.8 6.7c-1.5 5.9-1.5 7.4-0.4 13 0.8 3.5 3 11.2 4.9 17.3 1.9 6 5.5 15.3 8 20.5 2.4 5.2 6.8 13.1 9.8 17.5 2.9 4.4 9 11.6 13.4 16 6.3 6.3 8.3 7.7 9.3 6.8 1-0.9 0.6-2-2.3-5.5-2-2.4-5.4-7-7.6-10.3-2.2-3.3-6.1-9.8-8.6-14.5-2.5-4.7-6.4-13-8.6-18.5-2.1-5.5-5.1-14.3-6.5-19.5-1.4-5.2-2.8-11.8-3.2-14.5-0.3-2.8 0-7 0.6-9.5 0.7-2.5 3-9.6 5.1-15.8 2.1-6.1 4.2-11.2 4.6-11.2 0.5 0 1.6 5.5 2.6 12.2 1 6.8 2.9 17.9 4.3 24.8 1.4 6.9 3.9 16.7 5.5 21.7 1.6 5.3 3.4 9.3 4.1 9.3 0.7 0 1.9-0.4 2.6-0.8 0.7-0.4 1-1.4 0.7-2.2-0.2-0.8-1.8-9.4-3.4-19-1.7-9.6-3.9-24.5-5.1-33-1.1-8.5-2.7-22.9-3.5-32-0.8-9.1-1.5-23.7-1.5-32.5 0-8.8 0.4-19.6 1-24 0.5-4.4 1.7-10.7 2.6-14 0.8-3.3 2.5-8 5.7-15l0.8 5c0.4 2.7 1.2 13.1 1.9 23 0.6 9.9 1.7 23.2 2.5 29.5 0.9 6.3 2.5 16 3.6 21.5 1.2 5.5 3 12.5 4.2 15.5 1.2 3 3.4 7 4.9 8.7 1.5 1.8 3.5 3.3 4.3 3.3 0.8 0 1.5-0.3 1.5-0.8 0-0.4-0.6-3-1.4-5.7-0.9-2.8-2.9-11.8-4.5-20-1.6-8.3-3.7-20.6-4.5-27.5-0.9-6.9-2-18.4-2.5-25.5-0.5-7.2-1.2-20.9-1.6-30.5-0.3-9.6-0.2-27.2 1.2-60.5l3.3-6c1.9-3.3 5.5-9.2 8.1-13 2.5-3.9 7-9.8 9.8-13.3 2.8-3.4 5.3-6.2 5.6-6.2 0.3 0 0.7 12.7 0.9 28.2 0.3 18.3 0.9 30.8 1.8 35.3 0.9 4.7 1.8 7 2.8 7 1.1 0 1.4-3.9 1.6-22.5 0.2-12.4 0.6-27.5 0.9-33.5 0.3-6.1 1-14.8 1.6-19.5 0.5-4.7 1.5-11 2.2-14 1-4.6 2.2-6.5 8.6-13.2 4.1-4.3 7.6-7.7 7.7-7.5zm0.1 23.7c0.2 1.4-0.5 10.1-1.7 19.5-1.1 9.3-2.3 17.2-2.7 17.5-0.3 0.3-0.3-4.5 0-10.5 0.4-6.1 1.3-14.8 2.2-19.5 0.8-4.7 1.6-8.7 1.6-9 0.1-0.3 0.4 0.6 0.6 2zm-23.2 28.2c0 0.2-0.2 3.9-1.2 16.3l-0.3-7.6c-0.2-4.2 0-7.9 0.5-8.2 0.5-0.4 0.9-0.6 1-0.5zm254 233.2c0.5 0.1 7.4 10.4 15.2 22.7 7.8 12.3 14 22.7 13.7 23.1-0.2 0.5 0.2 1.1 0.8 1.4 0.7 0.3 14.6-2.6 30.8-6.5 16.2-3.9 29.6-7 29.7-6.9 0.1 0.2-2.5 10.9-5.8 23.8-3.2 12.9-6 23.6-6.1 23.8-0.2 0.1-21.9-9-48.3-20.4-26.4-11.3-48.3-20.9-48.6-21.2-0.4-0.4 3.5-9.6 8.5-20.4 5-10.9 9.5-19.6 10.1-19.4zm7.4 1.8c0.9 0.2 18.5 6.7 39.1 14.3 20.6 7.6 37.8 14.1 38.3 14.4 0.4 0.3-11.1 3.6-25.5 7.3-14.5 3.7-26.6 6.4-27 6-0.4-0.4-6.2-9.5-13-20.2-6.8-10.7-12.7-20.1-13-20.9-0.4-1-0.1-1.3 1.1-0.9z"/></svg>